<svg width="1440" height="900" viewBox="0 0 1440 900" fill="none" xmlns="http://www.w3.org/2000/svg">
<rect width="1440" height="900" fill="#222736"/>
<g opacity="0.08">
<path opacity="0.9" d="M92.4739 816.518L48.6534 790.961V739.879L48.8867 739.738L92.4739 714.322L136.294 739.879V790.961L136.07 791.102L92.4739 816.518ZM49.578 790.436L92.4739 815.443L135.378 790.436V740.421L92.4739 715.414L49.578 740.421V790.436Z" fill="#808285"/>
<path opacity="0.86" d="M92.4738 867.074L5.28259 816.226V714.53L5.51584 714.414L92.4738 663.716L179.657 714.564V816.26L179.44 816.385L92.4738 867.074ZM6.20713 815.709L92.4738 865.99L178.749 815.709V715.131L92.4738 664.85L6.20713 715.131V815.709Z" fill="#808285"/>
<path opacity="0.57" d="M150.796 900L92.9402 866.282V664.558L265.924 563.721L438.915 664.558V866.282L381.06 900H382.909L439.607 866.949L439.848 866.807V664.033L266.165 562.787L265.924 562.646L92.2489 663.891L92.0156 664.033V866.807L148.947 900H150.796Z" fill="#808285"/>
<path opacity="0.87" d="M209.459 900L265.924 867.074L322.396 900H324.246L265.924 865.99L207.61 900H209.459Z" fill="#808285"/>
<path opacity="0.55" d="M92.9402 900V866.807L265.924 765.97L438.915 866.807V900H439.848V866.282L266.165 765.012L265.924 764.886L92.2489 866.14L92.0156 866.282V900H92.9402Z" fill="#808285"/>
<path opacity="0.88" d="M265.924 867.074L178.749 816.226V714.53L178.965 714.414L265.924 663.716L353.123 714.564V816.26L352.882 816.385L265.924 867.074ZM179.657 815.709L265.924 865.99L352.191 815.709V715.131L265.932 664.85L179.665 715.131L179.657 815.709Z" fill="#808285"/>
<path opacity="0.52" d="M410.979 900L396.478 891.556V841.533L439.382 816.518L482.286 841.533V891.556L467.793 900H469.642L483.211 892.081V840.983L439.382 815.442L395.561 840.983V892.081L409.121 900H410.979Z" fill="#808285"/>
<path opacity="0.75" d="M209.459 900L265.924 867.074L322.396 900H324.246L265.924 865.99L207.61 900H209.459Z" fill="#808285"/>
<path opacity="0.52" d="M265.924 690.124L243.776 677.203V651.362L244.018 651.221L265.924 638.459L288.072 651.362V677.203L287.847 677.345L265.924 690.124ZM244.742 676.67L265.957 689.04L287.189 676.67V651.921L265.957 639.551L244.742 651.921V676.67Z" fill="#808285"/>
<path opacity="0.99" d="M612.84 765.97L612.599 765.828L525.64 715.131V613.435L525.865 613.293L612.84 562.604L613.065 562.746L700.023 613.435V715.131L699.798 715.256L612.84 765.97ZM526.557 714.58L612.84 764.895L699.107 714.58V614.01L612.84 563.721L526.557 614.01V714.58Z" fill="#808285"/>
<path opacity="0.52" d="M612.84 892.364L590.701 879.444V853.645L612.84 840.717L634.963 853.645V879.444L612.84 892.364ZM591.609 878.919L612.84 891.289L634.055 878.919V854.154L612.84 841.775L591.609 854.154V878.919Z" fill="#808285"/>
<path opacity="0.65" d="M526.565 900V816.259L612.84 765.97L699.107 816.259V900H700.023V815.709L613.065 765.012L612.84 764.886L525.874 815.584L525.64 815.709V900H526.565Z" fill="#808285"/>
<path opacity="0.77" d="M786.281 765.97L786.057 765.828L699.107 715.131V613.435L699.332 613.293L786.281 562.604L786.523 562.746L873.481 613.435V715.131L873.231 715.256L786.281 765.97ZM700.023 714.58L786.281 764.895L872.548 714.58V614.01L786.281 563.721L700.023 614.01V714.58Z" fill="#808285"/>
<path opacity="0.81" d="M497.704 900L439.848 866.282V664.558L612.84 563.721L785.84 664.558V866.282L727.976 900H729.809L786.523 866.949L786.748 866.807V664.033L613.065 562.787L612.84 562.646L439.157 663.891L438.915 664.033V866.807L495.855 900H497.704Z" fill="#808285"/>
<path d="M786.282 892.364L764.142 879.444V853.645L786.282 840.717L808.429 853.645V879.444L786.282 892.364ZM765.075 878.919L786.282 891.289L807.513 878.919V854.154L786.282 841.775L765.075 854.154V878.919Z" fill="#808285"/>
<path opacity="0.63" d="M353.123 900V816.259L439.382 765.97L525.64 816.259V900H526.565V815.709L439.607 765.012L439.382 764.886L352.432 815.584L352.207 815.709V900H353.123Z" fill="#808285"/>
<path opacity="0.6" d="M353.123 900V816.259L439.382 765.97L525.64 816.259V900H526.565V815.709L439.607 765.012L439.382 764.886L352.432 815.584L352.207 815.709V900H353.123Z" fill="#808285"/>
<path opacity="0.6" d="M556.367 900L612.84 867.074L669.296 900H671.145L612.84 865.99L554.518 900H556.367Z" fill="#808285"/>
<path opacity="0.56" d="M612.84 765.97L612.599 765.828L525.64 715.131V613.435L525.865 613.293L612.84 562.604L613.065 562.746L700.023 613.435V715.131L699.798 715.256L612.84 765.97ZM526.557 714.58L612.84 764.895L699.107 714.58V614.01L612.84 563.721L526.557 614.01V714.58Z" fill="#808285"/>
<path opacity="0.95" d="M786.281 867.074L699.107 816.226V714.53L699.332 714.414L786.281 663.716L873.481 714.564V816.26L873.231 816.385L786.281 867.074ZM700.023 815.709L786.281 865.99L872.548 815.709V715.131L786.281 664.85L700.023 715.131V815.709Z" fill="#808285"/>
<path opacity="0.83" d="M959.739 765.97L959.515 765.828L785.832 664.558V461.783L786.056 461.667L959.739 360.396L959.964 360.538L1133.65 461.783V664.558L1133.42 664.708L959.739 765.97ZM786.748 664.033L959.739 764.895L1132.73 664.033V462.375L959.739 361.513L786.748 462.375V664.033Z" fill="#808285"/>
<path opacity="0.96" d="M786.282 487.874L764.142 474.97V449.13L764.384 449.013L786.282 436.226L808.429 449.13V474.97L808.204 475.095L786.282 487.874ZM765.075 474.42L786.282 486.799L807.513 474.42V449.697L786.282 437.368L765.075 449.738V474.42Z" fill="#808285"/>
<path opacity="0.69" d="M1133.2 563.721L1132.96 563.579L1046.02 512.881V411.236L1046.24 411.094L1133.21 360.396L1133.44 360.538L1220.4 411.236V512.881L1220.17 513.031L1133.2 563.721ZM1046.92 512.389L1133.2 562.679L1219.46 512.389V411.761L1133.2 361.513L1046.92 411.802V512.389Z" fill="#808285"/>
<path opacity="0.55" d="M959.74 816.518L915.919 790.961V739.879L916.144 739.738L959.74 714.322L1003.56 739.879V790.961L1003.34 791.102L959.74 816.518ZM916.835 790.436L959.74 815.443L1002.65 790.436V740.421L959.74 715.414L916.835 740.421V790.436Z" fill="#808285"/>
<path opacity="0.8" d="M959.74 664.85L959.515 664.708L872.548 614.01V512.389L872.79 512.248L959.74 461.542L959.965 461.683L1046.92 512.373V614.068L1046.7 614.21L959.74 664.85ZM873.481 613.477L959.74 663.766L1046.02 613.477V512.881L959.756 462.6L873.498 512.881L873.481 613.477Z" fill="#808285"/>
<path opacity="0.5" d="M903.267 900L959.739 867.074L1016.21 900H1018.06L959.739 865.99L901.417 900H903.267Z" fill="#808285"/>
<path opacity="0.76" d="M700.023 900V816.259L786.281 765.97L872.54 816.259V900H873.481V815.709L786.523 765.012L786.281 764.886L699.332 815.584L699.107 815.709V900H700.023Z" fill="#808285"/>
<path opacity="0.93" d="M959.74 867.074L872.548 816.226V714.53L872.79 714.414L959.74 663.716L1046.92 714.564V816.26L1046.7 816.385L959.74 867.074ZM873.481 815.709L959.74 865.99L1046.02 815.709V715.131L959.756 664.85L873.498 715.131L873.481 815.709Z" fill="#808285"/>
<path opacity="0.67" d="M1104.77 900L1090.29 891.556V841.533L1133.2 816.518L1176.09 841.533V891.556L1161.61 900H1163.44L1177.03 892.081V840.983L1133.2 815.442L1089.36 840.983V892.081L1102.95 900H1104.77Z" fill="#808285"/>
<path opacity="0.56" d="M903.267 900L959.739 867.074L1016.21 900H1018.06L959.739 865.99L901.417 900H903.267Z" fill="#808285"/>
<path opacity="0.93" d="M1306.64 361.513L1306.41 361.371L1219.46 310.665V208.97L1219.69 208.836L1306.64 158.147L1393.84 208.995V310.665L1393.6 310.807L1306.64 361.513ZM1220.38 310.148L1306.64 360.438L1392.91 310.148V209.528L1306.64 159.239L1220.38 209.528V310.148Z" fill="#808285"/>
<path opacity="0.64" d="M1306.64 563.721L1219.46 512.873V411.236L1219.69 411.094L1306.64 360.396L1393.84 411.244V512.89L1393.6 513.04L1306.64 563.721ZM1220.38 512.389L1306.64 562.679L1392.91 512.389V411.761L1306.64 361.513L1220.38 411.802V512.389Z" fill="#808285"/>
<path opacity="0.89" d="M1133.2 765.97L1132.96 765.828L959.273 664.558V461.783L959.515 461.667L1133.2 360.396L1133.42 360.538L1307.11 461.783V664.558L1306.88 664.708L1133.2 765.97ZM960.231 664.033L1133.21 764.895L1306.21 664.033V462.375L1133.2 361.513L960.231 462.375V664.033Z" fill="#808285"/>
<path opacity="0.65" d="M959.739 487.874L937.6 474.97V449.13L937.817 449.013L959.739 436.226L981.887 449.146V474.987L981.646 475.112L959.739 487.874ZM938.508 474.42L959.739 486.799L980.954 474.42V449.697L959.739 437.368L938.508 449.738V474.42Z" fill="#808285"/>
<path opacity="0.62" d="M959.739 690.124L937.6 677.203V651.362L937.817 651.221L959.739 638.459L981.887 651.362V677.203L981.646 677.345L959.739 690.124ZM938.508 676.67L959.739 689.04L980.954 676.67V651.921L959.739 639.551L938.508 651.921V676.67Z" fill="#808285"/>
<path opacity="0.99" d="M1306.64 892.364L1284.49 879.444V853.645L1306.64 840.717L1328.79 853.645V879.444L1306.64 892.364ZM1285.43 878.919L1306.64 891.289L1327.87 878.919V854.154L1306.64 841.775L1285.43 854.154V878.919Z" fill="#808285"/>
<path opacity="0.52" d="M1133.2 487.874L1111.06 474.97V449.13L1111.28 449.013L1133.2 436.226L1155.33 449.13V474.97L1155.1 475.095L1133.2 487.874ZM1111.97 474.42L1133.2 486.799L1154.41 474.42V449.697L1133.2 437.368L1111.97 449.738V474.42Z" fill="#808285"/>
<path opacity="0.51" d="M1133.2 563.721L1132.96 563.579L1046.02 512.881V411.236L1046.24 411.094L1133.21 360.396L1133.44 360.538L1220.4 411.236V512.881L1220.17 513.031L1133.2 563.721ZM1046.92 512.389L1133.2 562.679L1219.46 512.389V411.761L1133.2 361.513L1046.92 411.802V512.389Z" fill="#808285"/>
<path opacity="0.65" d="M1440 741.505L1393.84 714.58V614.01L1440 587.086V586.027L1393.15 613.335L1392.91 613.485V715.131L1440 742.588V741.505Z" fill="#808285"/>
<path opacity="0.51" d="M1306.64 867.074L1219.46 816.226V714.53L1219.69 714.414L1306.64 663.716L1393.84 714.564V816.26L1393.6 816.385L1306.64 867.074ZM1220.38 815.709L1306.64 865.99L1392.91 815.709V715.131L1306.64 664.85L1220.38 715.131V815.709Z" fill="#808285"/>
<path opacity="0.65" d="M1440 690.932L1437.19 689.307V639.284L1440 637.659V636.575L1436.5 638.609L1436.28 638.759V689.857L1440 692.016V690.932Z" fill="#808285"/>
<path opacity="0.72" d="M1250.17 900L1306.64 867.074L1363.11 900H1364.96L1306.64 865.99L1248.32 900H1250.17Z" fill="#808285"/>
<path opacity="0.69" d="M1046.91 900V816.259L1133.2 765.97L1219.46 816.259V900H1220.38V815.709L1133.42 765.012L1133.2 764.886L1046.25 815.584L1046.01 815.709V900H1046.91Z" fill="#808285"/>
<path opacity="0.85" d="M1306.64 867.074L1219.46 816.226V714.53L1219.69 714.414L1306.64 663.716L1393.84 714.564V816.26L1393.6 816.385L1306.64 867.074ZM1220.38 815.709L1306.64 865.99L1392.91 815.709V715.131L1306.64 664.85L1220.38 715.131V815.709Z" fill="#808285"/>
<path opacity="0.81" d="M1440 741.505L1307.11 664.033V462.334L1440 384.861V383.778L1306.42 461.658L1306.2 461.783V664.558L1440 742.588V741.505Z" fill="#808285"/>
<path opacity="0.64" d="M1364.96 900L1307.11 866.282V664.558L1440 587.086V586.027L1306.42 663.891L1306.2 664.033V866.807L1363.11 900H1364.96Z" fill="#808285"/>
<path d="M1440 640.384L1393.84 613.485V512.89L1440 485.982V484.907L1393.15 512.214L1392.91 512.356V614.01L1440 641.468V640.384Z" fill="#808285"/>
<path opacity="0.98" d="M1423.63 900L1440 890.456V889.381L1421.78 900H1423.63Z" fill="#808285"/>
<path opacity="0.63" d="M1423.63 900L1440 890.456V889.381L1421.78 900H1423.63Z" fill="#808285"/>
<path opacity="0.85" d="M1440 337.031L1393.84 310.115V209.528L1440 182.612V181.545L1393.15 208.853L1392.91 208.986V310.64L1440 338.09V337.031Z" fill="#808285"/>
<path opacity="0.68" d="M1393.84 900V816.259L1440 789.335V788.251L1393.15 815.584L1392.91 815.709V900H1393.84Z" fill="#808285"/>
<path opacity="0.69" d="M141.367 790.694C141.359 791.787 141.028 792.853 140.415 793.757C139.802 794.662 138.936 795.365 137.924 795.777C136.913 796.19 135.802 796.294 134.732 796.075C133.662 795.857 132.68 795.327 131.911 794.551C131.142 793.775 130.619 792.789 130.409 791.717C130.199 790.644 130.311 789.533 130.731 788.524C131.151 787.515 131.859 786.653 132.768 786.047C133.677 785.441 134.744 785.117 135.836 785.117C136.566 785.119 137.287 785.265 137.96 785.547C138.633 785.828 139.243 786.24 139.757 786.758C140.271 787.276 140.677 787.89 140.954 788.565C141.23 789.241 141.37 789.964 141.367 790.694Z" fill="#808285"/>
<path opacity="0.52" d="M11.2879 815.968C11.2813 817.063 10.9509 818.131 10.3383 819.038C9.72565 819.945 8.85836 820.651 7.84569 821.065C6.83301 821.48 5.72034 821.585 4.64809 821.367C3.57584 821.149 2.592 820.619 1.82069 819.842C1.04938 819.066 0.525198 818.078 0.314162 817.004C0.103126 815.929 0.214756 814.816 0.634949 813.805C1.05514 812.794 1.76503 811.931 2.67517 811.323C3.58532 810.716 4.65485 810.391 5.74893 810.391C7.22169 810.398 8.63177 810.989 9.67006 812.034C10.7083 813.079 11.2901 814.494 11.2879 815.968V815.968Z" fill="#808285"/>
<path opacity="0.78" d="M184.771 714.872C184.758 715.964 184.423 717.027 183.808 717.928C183.192 718.829 182.324 719.528 181.313 719.937C180.302 720.346 179.193 720.447 178.124 720.226C177.056 720.006 176.077 719.474 175.31 718.699C174.542 717.923 174.022 716.937 173.813 715.866C173.604 714.795 173.716 713.686 174.135 712.678C174.554 711.67 175.262 710.809 176.169 710.203C177.076 709.597 178.142 709.272 179.232 709.271C179.964 709.273 180.688 709.42 181.363 709.703C182.038 709.986 182.65 710.399 183.165 710.92C183.679 711.44 184.086 712.057 184.362 712.736C184.638 713.414 184.777 714.14 184.771 714.872V714.872Z" fill="#808285"/>
<path opacity="0.81" d="M11.2879 714.872C11.2764 715.966 10.9418 717.032 10.3263 717.936C9.71068 718.84 8.84168 719.541 7.82862 719.952C6.81556 720.362 5.70366 720.464 4.63308 720.243C3.56251 720.023 2.58103 719.49 1.81222 718.713C1.04341 717.935 0.521654 716.948 0.312617 715.874C0.10358 714.8 0.216683 713.689 0.63757 712.679C1.05846 711.67 1.76831 710.807 2.67788 710.201C3.58744 709.594 4.65597 709.271 5.74896 709.271C6.48065 709.273 7.20472 709.42 7.87956 709.703C8.55439 709.986 9.16677 710.399 9.68144 710.92C10.1961 711.44 10.603 712.057 10.8787 712.736C11.1544 713.414 11.2934 714.14 11.2879 714.872V714.872Z" fill="#808285"/>
<path opacity="0.99" d="M358.188 714.872C358.176 715.966 357.842 717.032 357.226 717.936C356.61 718.84 355.741 719.541 354.728 719.952C353.715 720.362 352.603 720.464 351.533 720.243C350.462 720.023 349.481 719.49 348.712 718.713C347.943 717.935 347.421 716.948 347.212 715.874C347.003 714.8 347.116 713.689 347.537 712.679C347.958 711.67 348.668 710.807 349.577 710.201C350.487 709.594 351.556 709.271 352.649 709.271C353.38 709.273 354.104 709.42 354.779 709.703C355.454 709.986 356.066 710.399 356.581 710.92C357.096 711.44 357.503 712.057 357.778 712.736C358.054 713.414 358.193 714.14 358.188 714.872V714.872Z" fill="#808285"/>
<path opacity="0.99" d="M271.454 765.42C271.441 766.512 271.106 767.575 270.49 768.476C269.874 769.378 269.006 770.077 267.994 770.486C266.983 770.894 265.873 770.995 264.805 770.773C263.736 770.552 262.757 770.02 261.99 769.243C261.223 768.467 260.703 767.48 260.495 766.409C260.287 765.337 260.4 764.228 260.821 763.22C261.241 762.213 261.95 761.352 262.858 760.747C263.766 760.141 264.833 759.818 265.924 759.818C266.655 759.821 267.379 759.967 268.053 760.251C268.728 760.534 269.339 760.947 269.853 761.468C270.367 761.989 270.773 762.606 271.048 763.284C271.323 763.962 271.461 764.688 271.454 765.42V765.42Z" fill="#808285"/>
<path opacity="0.54" d="M401.558 891.815C401.55 892.911 401.217 893.981 400.602 894.889C399.987 895.797 399.117 896.502 398.101 896.915C397.086 897.329 395.971 897.432 394.897 897.211C393.824 896.991 392.839 896.457 392.068 895.678C391.297 894.898 390.774 893.907 390.565 892.83C390.357 891.754 390.471 890.639 390.895 889.627C391.319 888.616 392.032 887.752 392.946 887.146C393.859 886.54 394.932 886.218 396.028 886.221C397.502 886.23 398.912 886.824 399.949 887.873C400.986 888.921 401.565 890.339 401.558 891.815V891.815Z" fill="#808285"/>
<path opacity="0.81" d="M293.152 651.662C293.142 652.758 292.809 653.826 292.194 654.732C291.579 655.638 290.709 656.342 289.695 656.755C288.681 657.168 287.568 657.271 286.495 657.052C285.423 656.833 284.439 656.301 283.668 655.523C282.897 654.746 282.373 653.757 282.162 652.682C281.951 651.607 282.062 650.494 282.482 649.482C282.902 648.471 283.612 647.606 284.522 646.997C285.432 646.388 286.502 646.062 287.597 646.061C288.329 646.063 289.054 646.21 289.73 646.492C290.405 646.775 291.019 647.189 291.535 647.709C292.051 648.229 292.459 648.846 292.737 649.525C293.014 650.203 293.155 650.929 293.152 651.662Z" fill="#808285"/>
<path opacity="0.77" d="M531.646 714.872C531.633 715.964 531.297 717.027 530.682 717.929C530.066 718.83 529.198 719.529 528.186 719.938C527.174 720.347 526.064 720.447 524.996 720.226C523.927 720.005 522.948 719.472 522.181 718.696C521.414 717.919 520.894 716.933 520.686 715.861C520.478 714.789 520.591 713.68 521.012 712.672C521.432 711.665 522.141 710.804 523.049 710.199C523.957 709.594 525.024 709.271 526.115 709.271C526.846 709.274 527.569 709.421 528.243 709.705C528.917 709.988 529.528 710.402 530.042 710.923C530.556 711.443 530.962 712.06 531.237 712.737C531.513 713.415 531.651 714.141 531.646 714.872V714.872Z" fill="#808285"/>
<path opacity="0.54" d="M618.379 765.42C618.369 766.516 618.035 767.585 617.42 768.491C616.804 769.398 615.933 770.101 614.918 770.514C613.903 770.926 612.789 771.028 611.716 770.808C610.643 770.587 609.66 770.054 608.889 769.275C608.119 768.496 607.596 767.506 607.387 766.43C607.178 765.353 607.292 764.24 607.714 763.228C608.137 762.217 608.849 761.353 609.761 760.747C610.674 760.14 611.745 759.817 612.84 759.818C614.317 759.827 615.729 760.422 616.768 761.472C617.806 762.523 618.386 763.942 618.379 765.42V765.42Z" fill="#808285"/>
<path opacity="0.85" d="M705.104 714.872C705.094 715.968 704.761 717.036 704.146 717.942C703.53 718.848 702.661 719.552 701.647 719.965C700.633 720.377 699.52 720.481 698.447 720.261C697.375 720.042 696.391 719.511 695.62 718.733C694.849 717.956 694.324 716.967 694.113 715.892C693.903 714.817 694.014 713.704 694.434 712.692C694.854 711.68 695.564 710.816 696.474 710.207C697.384 709.598 698.454 709.272 699.548 709.271C700.281 709.272 701.006 709.418 701.683 709.7C702.359 709.982 702.973 710.396 703.489 710.916C704.005 711.437 704.414 712.054 704.691 712.733C704.968 713.412 705.108 714.139 705.104 714.872V714.872Z" fill="#808285"/>
<path opacity="0.56" d="M705.104 613.743C705.095 614.839 704.763 615.908 704.149 616.815C703.535 617.723 702.667 618.428 701.653 618.842C700.639 619.256 699.525 619.36 698.452 619.142C697.379 618.924 696.395 618.393 695.623 617.616C694.851 616.838 694.326 615.85 694.114 614.775C693.903 613.699 694.013 612.585 694.433 611.573C694.853 610.561 695.563 609.696 696.473 609.087C697.383 608.478 698.453 608.152 699.548 608.15C700.28 608.151 701.005 608.297 701.681 608.579C702.356 608.86 702.97 609.273 703.486 609.793C704.002 610.312 704.411 610.929 704.688 611.607C704.966 612.285 705.107 613.011 705.104 613.743Z" fill="#808285"/>
<path opacity="0.85" d="M618.379 563.171C618.374 564.268 618.044 565.339 617.431 566.249C616.818 567.159 615.95 567.866 614.935 568.283C613.921 568.699 612.806 568.805 611.731 568.587C610.657 568.369 609.671 567.838 608.898 567.059C608.125 566.281 607.6 565.291 607.388 564.214C607.177 563.138 607.29 562.022 607.712 561.01C608.134 559.997 608.846 559.132 609.759 558.524C610.671 557.916 611.744 557.592 612.84 557.594C614.312 557.603 615.721 558.194 616.759 559.239C617.796 560.284 618.379 561.697 618.379 563.171V563.171Z" fill="#808285"/>
<path opacity="0.61" d="M596.697 853.903C596.689 854.999 596.357 856.068 595.743 856.975C595.129 857.883 594.26 858.588 593.246 859.002C592.232 859.416 591.119 859.52 590.046 859.302C588.973 859.084 587.988 858.553 587.216 857.775C586.444 856.998 585.919 856.01 585.708 854.935C585.496 853.859 585.607 852.746 586.027 851.734C586.447 850.721 587.156 849.856 588.067 849.247C588.977 848.638 590.047 848.312 591.142 848.31C591.874 848.311 592.599 848.457 593.274 848.739C593.95 849.021 594.563 849.433 595.08 849.953C595.596 850.473 596.004 851.089 596.282 851.767C596.56 852.445 596.701 853.171 596.697 853.903V853.903Z" fill="#808285"/>
<path opacity="0.77" d="M791.813 765.42C791.799 766.512 791.464 767.575 790.848 768.476C790.233 769.378 789.364 770.077 788.352 770.486C787.341 770.894 786.231 770.995 785.162 770.773C784.094 770.552 783.115 770.02 782.348 769.243C781.581 768.467 781.061 767.48 780.853 766.409C780.645 765.337 780.758 764.228 781.179 763.22C781.599 762.213 782.308 761.352 783.216 760.747C784.124 760.141 785.191 759.818 786.282 759.818C787.013 759.821 787.737 759.967 788.411 760.251C789.086 760.534 789.697 760.947 790.211 761.468C790.725 761.989 791.131 762.606 791.406 763.284C791.681 763.962 791.819 764.688 791.813 765.42V765.42Z" fill="#808285"/>
<path opacity="0.91" d="M770.139 879.161C770.129 880.255 769.796 881.322 769.181 882.227C768.567 883.132 767.698 883.834 766.686 884.246C765.673 884.658 764.56 884.761 763.489 884.541C762.418 884.322 761.436 883.79 760.666 883.013C759.897 882.236 759.374 881.248 759.164 880.174C758.955 879.1 759.067 877.988 759.488 876.978C759.909 875.968 760.618 875.105 761.528 874.498C762.438 873.891 763.507 873.567 764.6 873.567C765.331 873.571 766.054 873.718 766.728 874.001C767.401 874.284 768.013 874.697 768.527 875.216C769.042 875.735 769.449 876.351 769.725 877.028C770.002 877.705 770.143 878.43 770.139 879.161Z" fill="#808285"/>
<path opacity="0.95" d="M965.27 714.872C965.257 715.964 964.922 717.027 964.306 717.929C963.69 718.83 962.822 719.529 961.81 719.938C960.799 720.347 959.689 720.447 958.62 720.226C957.552 720.005 956.573 719.472 955.806 718.696C955.039 717.919 954.519 716.933 954.311 715.861C954.103 714.789 954.216 713.68 954.637 712.672C955.057 711.665 955.766 710.804 956.674 710.199C957.582 709.594 958.649 709.271 959.74 709.271C960.471 709.273 961.195 709.42 961.869 709.703C962.544 709.986 963.155 710.4 963.669 710.92C964.183 711.441 964.589 712.058 964.864 712.736C965.139 713.414 965.277 714.14 965.27 714.872V714.872Z" fill="#808285"/>
<path opacity="0.9" d="M878.545 714.872C878.532 715.964 878.197 717.027 877.581 717.929C876.965 718.83 876.097 719.529 875.085 719.938C874.074 720.347 872.964 720.447 871.896 720.226C870.827 720.005 869.848 719.472 869.081 718.696C868.314 717.919 867.794 716.933 867.586 715.861C867.378 714.789 867.491 713.68 867.912 712.672C868.332 711.665 869.041 710.804 869.949 710.199C870.857 709.594 871.924 709.271 873.015 709.271C873.746 709.274 874.469 709.421 875.143 709.705C875.817 709.988 876.428 710.402 876.942 710.923C877.455 711.443 877.861 712.06 878.137 712.737C878.412 713.415 878.551 714.141 878.545 714.872V714.872Z" fill="#808285"/>
<path opacity="0.94" d="M791.813 664.299C791.799 665.391 791.464 666.455 790.848 667.356C790.233 668.257 789.364 668.956 788.352 669.365C787.341 669.774 786.231 669.874 785.162 669.653C784.094 669.432 783.115 668.9 782.348 668.123C781.581 667.346 781.061 666.36 780.853 665.288C780.645 664.216 780.758 663.107 781.179 662.1C781.599 661.092 782.308 660.232 783.216 659.626C784.124 659.021 785.191 658.698 786.282 658.698C787.013 658.7 787.737 658.847 788.411 659.13C789.086 659.413 789.697 659.827 790.211 660.348C790.725 660.868 791.131 661.485 791.406 662.163C791.681 662.842 791.819 663.568 791.813 664.299V664.299Z" fill="#808285"/>
<path opacity="0.57" d="M791.812 462.05C791.804 463.143 791.473 464.209 790.86 465.114C790.247 466.018 789.381 466.721 788.369 467.134C787.358 467.546 786.247 467.65 785.177 467.432C784.107 467.214 783.126 466.683 782.356 465.907C781.587 465.132 781.064 464.145 780.854 463.073C780.644 462 780.756 460.89 781.176 459.881C781.596 458.872 782.305 458.01 783.213 457.403C784.122 456.797 785.189 456.474 786.281 456.474C787.011 456.476 787.732 456.622 788.405 456.903C789.078 457.185 789.688 457.596 790.202 458.114C790.716 458.632 791.122 459.246 791.399 459.922C791.675 460.597 791.816 461.32 791.812 462.05V462.05Z" fill="#808285"/>
<path opacity="0.72" d="M813.51 474.712C813.501 475.808 813.167 476.876 812.551 477.782C811.936 478.689 811.066 479.393 810.051 479.805C809.037 480.218 807.923 480.32 806.85 480.101C805.777 479.881 804.794 479.348 804.023 478.57C803.252 477.791 802.729 476.802 802.519 475.727C802.309 474.651 802.421 473.538 802.843 472.526C803.264 471.515 803.975 470.65 804.886 470.043C805.797 469.435 806.868 469.11 807.963 469.11C808.695 469.113 809.42 469.259 810.095 469.542C810.77 469.825 811.383 470.239 811.898 470.759C812.414 471.279 812.821 471.896 813.098 472.575C813.375 473.253 813.515 473.979 813.51 474.712Z" fill="#808285"/>
<path opacity="0.79" d="M1138.73 360.946C1138.72 362.041 1138.38 363.108 1137.77 364.013C1137.16 364.918 1136.29 365.621 1135.27 366.032C1134.26 366.444 1133.15 366.546 1132.08 366.326C1131 366.106 1130.02 365.573 1129.25 364.795C1128.48 364.017 1127.96 363.029 1127.75 361.954C1127.54 360.88 1127.66 359.768 1128.08 358.758C1128.5 357.748 1129.21 356.886 1130.12 356.28C1131.03 355.674 1132.1 355.351 1133.2 355.353C1133.93 355.356 1134.65 355.504 1135.32 355.787C1136 356.07 1136.61 356.483 1137.12 357.002C1137.64 357.522 1138.04 358.137 1138.32 358.814C1138.59 359.491 1138.73 360.215 1138.73 360.946V360.946Z" fill="#808285"/>
<path opacity="0.89" d="M1052 411.527C1051.99 412.619 1051.65 413.683 1051.04 414.584C1050.42 415.485 1049.56 416.184 1048.54 416.593C1047.53 417.002 1046.42 417.102 1045.35 416.881C1044.29 416.66 1043.31 416.128 1042.54 415.351C1041.77 414.574 1041.25 413.588 1041.04 412.516C1040.84 411.444 1040.95 410.335 1041.37 409.328C1041.79 408.32 1042.5 407.46 1043.41 406.854C1044.32 406.249 1045.38 405.926 1046.47 405.926C1047.2 405.93 1047.93 406.079 1048.6 406.362C1049.27 406.646 1049.88 407.06 1050.4 407.58C1050.91 408.1 1051.32 408.717 1051.59 409.394C1051.87 410.071 1052.01 410.796 1052 411.527V411.527Z" fill="#808285"/>
<path opacity="0.54" d="M921.916 740.146C921.905 741.24 921.57 742.306 920.954 743.211C920.338 744.115 919.469 744.816 918.455 745.226C917.441 745.637 916.329 745.738 915.258 745.517C914.187 745.296 913.206 744.762 912.437 743.984C911.669 743.206 911.148 742.217 910.94 741.143C910.732 740.069 910.846 738.957 911.268 737.947C911.69 736.938 912.401 736.076 913.312 735.471C914.223 734.865 915.292 734.543 916.386 734.545C917.117 734.548 917.84 734.696 918.513 734.979C919.187 735.263 919.799 735.676 920.313 736.197C920.826 736.717 921.233 737.334 921.508 738.011C921.783 738.689 921.922 739.415 921.916 740.146V740.146Z" fill="#808285"/>
<path opacity="0.83" d="M1052 613.743C1051.99 614.835 1051.66 615.9 1051.04 616.802C1050.43 617.705 1049.56 618.405 1048.55 618.815C1047.54 619.225 1046.43 619.327 1045.36 619.106C1044.29 618.886 1043.31 618.355 1042.54 617.578C1041.77 616.802 1041.25 615.816 1041.04 614.744C1040.84 613.671 1040.95 612.562 1041.37 611.554C1041.79 610.546 1042.5 609.684 1043.41 609.079C1044.31 608.473 1045.38 608.15 1046.47 608.15C1047.2 608.153 1047.93 608.301 1048.6 608.583C1049.27 608.866 1049.88 609.279 1050.4 609.799C1050.91 610.318 1051.32 610.934 1051.59 611.611C1051.87 612.288 1052.01 613.012 1052 613.743V613.743Z" fill="#808285"/>
<path opacity="0.55" d="M965.271 866.54C965.259 867.633 964.925 868.697 964.31 869.599C963.695 870.502 962.828 871.202 961.816 871.612C960.805 872.022 959.694 872.124 958.625 871.904C957.556 871.683 956.576 871.152 955.809 870.375C955.041 869.599 954.52 868.613 954.311 867.541C954.103 866.469 954.216 865.359 954.636 864.351C955.056 863.343 955.765 862.482 956.673 861.876C957.581 861.27 958.648 860.947 959.74 860.947C960.47 860.95 961.193 861.098 961.866 861.381C962.539 861.664 963.15 862.077 963.664 862.596C964.178 863.116 964.584 863.731 964.86 864.408C965.135 865.085 965.275 865.81 965.271 866.54Z" fill="#808285"/>
<path opacity="0.74" d="M791.813 765.42C791.799 766.512 791.464 767.575 790.848 768.476C790.233 769.378 789.364 770.077 788.352 770.486C787.341 770.894 786.231 770.995 785.162 770.773C784.094 770.552 783.115 770.02 782.348 769.243C781.581 768.467 781.061 767.48 780.853 766.409C780.645 765.337 780.758 764.228 781.179 763.22C781.599 762.213 782.308 761.352 783.216 760.747C784.124 760.141 785.191 759.818 786.282 759.818C787.013 759.821 787.737 759.967 788.411 760.251C789.086 760.534 789.697 760.947 790.211 761.468C790.725 761.989 791.131 762.606 791.406 763.284C791.681 763.962 791.819 764.688 791.813 765.42V765.42Z" fill="#808285"/>
<path opacity="0.57" d="M1052 815.968C1052 817.063 1051.67 818.132 1051.05 819.039C1050.44 819.947 1049.57 820.652 1048.56 821.066C1047.55 821.48 1046.43 821.585 1045.36 821.366C1044.29 821.148 1043.3 820.617 1042.53 819.839C1041.76 819.062 1041.24 818.073 1041.03 816.998C1040.82 815.924 1040.93 814.811 1041.35 813.8C1041.77 812.789 1042.49 811.926 1043.4 811.319C1044.31 810.712 1045.38 810.39 1046.47 810.391C1047.94 810.4 1049.35 810.992 1050.39 812.037C1051.42 813.082 1052.01 814.495 1052 815.968Z" fill="#808285"/>
<path opacity="0.7" d="M878.545 714.872C878.532 715.964 878.197 717.027 877.581 717.929C876.965 718.83 876.097 719.529 875.085 719.938C874.074 720.347 872.964 720.447 871.896 720.226C870.827 720.005 869.848 719.472 869.081 718.696C868.314 717.919 867.794 716.933 867.586 715.861C867.378 714.789 867.491 713.68 867.912 712.672C868.332 711.665 869.041 710.804 869.949 710.199C870.857 709.594 871.924 709.271 873.015 709.271C873.746 709.274 874.469 709.421 875.143 709.705C875.817 709.988 876.428 710.402 876.942 710.923C877.455 711.443 877.861 712.06 878.137 712.737C878.412 713.415 878.551 714.141 878.545 714.872V714.872Z" fill="#808285"/>
<path opacity="0.95" d="M1182.09 891.814C1182.08 892.906 1181.75 893.97 1181.13 894.872C1180.52 895.775 1179.65 896.475 1178.64 896.885C1177.63 897.295 1176.52 897.397 1175.45 897.178C1174.38 896.958 1173.4 896.428 1172.63 895.652C1171.86 894.877 1171.34 893.891 1171.13 892.82C1170.92 891.748 1171.03 890.639 1171.45 889.63C1171.87 888.622 1172.58 887.761 1173.49 887.154C1174.39 886.548 1175.46 886.223 1176.55 886.221C1177.28 886.224 1178.01 886.372 1178.68 886.655C1179.35 886.938 1179.96 887.35 1180.48 887.87C1180.99 888.389 1181.4 889.005 1181.68 889.682C1181.95 890.358 1182.09 891.083 1182.09 891.814Z" fill="#808285"/>
<path opacity="0.99" d="M1138.73 815.968C1138.72 817.063 1138.39 818.132 1137.78 819.039C1137.17 819.947 1136.3 820.652 1135.28 821.066C1134.27 821.48 1133.16 821.585 1132.09 821.366C1131.01 821.148 1130.03 820.617 1129.26 819.839C1128.49 819.062 1127.96 818.073 1127.75 816.998C1127.54 815.924 1127.66 814.811 1128.08 813.8C1128.5 812.789 1129.21 811.926 1130.12 811.319C1131.03 810.712 1132.1 810.39 1133.2 810.391C1134.67 810.398 1136.08 810.989 1137.12 812.034C1138.15 813.08 1138.73 814.495 1138.73 815.968V815.968Z" fill="#808285"/>
<path opacity="0.66" d="M1225.46 310.373C1225.46 311.47 1225.13 312.541 1224.51 313.451C1223.9 314.361 1223.03 315.068 1222.02 315.485C1221.01 315.901 1219.89 316.007 1218.82 315.79C1217.74 315.573 1216.76 315.043 1215.98 314.265C1215.21 313.488 1214.68 312.499 1214.47 311.422C1214.26 310.346 1214.37 309.231 1214.79 308.218C1215.21 307.205 1215.92 306.34 1216.84 305.731C1217.75 305.122 1218.82 304.797 1219.91 304.797C1221.39 304.801 1222.8 305.391 1223.84 306.437C1224.88 307.482 1225.46 308.898 1225.46 310.373V310.373Z" fill="#808285"/>
<path opacity="0.65" d="M1312.17 563.171C1312.16 564.264 1311.83 565.33 1311.22 566.234C1310.61 567.139 1309.74 567.842 1308.73 568.255C1307.72 568.667 1306.6 568.771 1305.53 568.552C1304.46 568.334 1303.48 567.804 1302.71 567.028C1301.94 566.252 1301.42 565.266 1301.21 564.194C1301 563.121 1301.11 562.01 1301.53 561.001C1301.95 559.992 1302.66 559.13 1303.57 558.524C1304.48 557.918 1305.55 557.594 1306.64 557.594C1307.37 557.596 1308.09 557.742 1308.76 558.024C1309.44 558.305 1310.05 558.717 1310.56 559.235C1311.07 559.753 1311.48 560.367 1311.76 561.042C1312.03 561.718 1312.17 562.441 1312.17 563.171V563.171Z" fill="#808285"/>
<path opacity="0.8" d="M1398.9 512.623C1398.89 513.715 1398.56 514.779 1397.94 515.682C1397.33 516.584 1396.46 517.285 1395.45 517.695C1394.44 518.105 1393.33 518.206 1392.26 517.986C1391.19 517.766 1390.21 517.234 1389.44 516.458C1388.67 515.681 1388.15 514.695 1387.94 513.623C1387.74 512.551 1387.85 511.441 1388.27 510.433C1388.69 509.425 1389.4 508.564 1390.31 507.958C1391.21 507.353 1392.28 507.03 1393.37 507.03C1394.1 507.032 1394.83 507.178 1395.5 507.461C1396.17 507.743 1396.78 508.157 1397.3 508.676C1397.81 509.196 1398.22 509.812 1398.49 510.489C1398.77 511.167 1398.91 511.892 1398.9 512.623V512.623Z" fill="#808285"/>
<path opacity="0.87" d="M943.573 474.712C943.559 475.804 943.224 476.867 942.608 477.769C941.993 478.67 941.124 479.369 940.113 479.778C939.101 480.186 937.991 480.287 936.923 480.066C935.854 479.845 934.875 479.312 934.108 478.535C933.341 477.759 932.821 476.773 932.613 475.701C932.405 474.629 932.518 473.519 932.939 472.512C933.359 471.505 934.068 470.644 934.976 470.039C935.884 469.433 936.951 469.11 938.042 469.11C938.773 469.115 939.495 469.263 940.169 469.547C940.842 469.831 941.453 470.245 941.966 470.765C942.48 471.285 942.886 471.901 943.162 472.578C943.437 473.256 943.577 473.981 943.573 474.712V474.712Z" fill="#808285"/>
<path opacity="0.88" d="M965.27 436.776C965.262 437.869 964.931 438.935 964.318 439.84C963.705 440.744 962.839 441.447 961.827 441.86C960.816 442.272 959.706 442.376 958.635 442.158C957.565 441.94 956.584 441.409 955.815 440.634C955.045 439.858 954.523 438.871 954.312 437.799C954.102 436.726 954.214 435.616 954.634 434.607C955.054 433.598 955.763 432.736 956.672 432.129C957.58 431.523 958.648 431.199 959.74 431.199C961.212 431.206 962.621 431.797 963.658 432.843C964.695 433.888 965.275 435.303 965.27 436.776V436.776Z" fill="#808285"/>
<path opacity="0.74" d="M943.572 676.936C943.564 678.029 943.233 679.095 942.62 680C942.007 680.905 941.141 681.607 940.129 682.02C939.118 682.432 938.007 682.536 936.937 682.318C935.867 682.1 934.886 681.569 934.116 680.794C933.347 680.018 932.825 679.032 932.614 677.959C932.404 676.887 932.516 675.776 932.936 674.767C933.356 673.758 934.065 672.896 934.973 672.29C935.882 671.684 936.95 671.36 938.042 671.36C939.513 671.369 940.921 671.96 941.957 673.005C942.994 674.051 943.574 675.464 943.572 676.936Z" fill="#808285"/>
<path d="M965.27 689.573C965.262 690.666 964.931 691.732 964.318 692.637C963.705 693.542 962.839 694.244 961.827 694.657C960.816 695.07 959.706 695.173 958.635 694.955C957.565 694.737 956.584 694.206 955.815 693.431C955.045 692.655 954.523 691.669 954.312 690.596C954.102 689.524 954.214 688.413 954.634 687.404C955.054 686.395 955.763 685.533 956.672 684.927C957.58 684.32 958.648 683.997 959.74 683.997C961.212 684.003 962.621 684.594 963.658 685.64C964.695 686.685 965.275 688.1 965.27 689.573V689.573Z" fill="#808285"/>
<path d="M986.952 651.662C986.938 652.754 986.603 653.818 985.987 654.719C985.372 655.62 984.503 656.319 983.491 656.728C982.48 657.137 981.37 657.237 980.301 657.016C979.233 656.795 978.254 656.263 977.487 655.486C976.72 654.709 976.2 653.723 975.992 652.651C975.784 651.579 975.897 650.47 976.318 649.462C976.738 648.455 977.447 647.594 978.355 646.989C979.263 646.384 980.33 646.061 981.421 646.061C982.151 646.065 982.874 646.214 983.548 646.497C984.221 646.781 984.832 647.195 985.346 647.715C985.859 648.235 986.265 648.852 986.541 649.529C986.816 650.206 986.956 650.931 986.952 651.662V651.662Z" fill="#808285"/>
<path opacity="0.6" d="M943.573 651.662C943.559 652.754 943.224 653.818 942.608 654.719C941.993 655.62 941.124 656.319 940.113 656.728C939.101 657.137 937.991 657.237 936.923 657.016C935.854 656.795 934.875 656.263 934.108 655.486C933.341 654.709 932.821 653.723 932.613 652.651C932.405 651.579 932.518 650.47 932.939 649.462C933.359 648.455 934.068 647.594 934.976 646.989C935.884 646.384 936.951 646.061 938.042 646.061C938.773 646.065 939.495 646.214 940.169 646.497C940.842 646.781 941.453 647.195 941.966 647.715C942.48 648.235 942.886 648.852 943.162 649.529C943.437 650.206 943.577 650.931 943.573 651.662V651.662Z" fill="#808285"/>
<path opacity="0.5" d="M1312.17 891.814C1312.16 892.907 1311.82 893.971 1311.21 894.873C1310.6 895.776 1309.73 896.476 1308.72 896.886C1307.7 897.296 1306.59 897.397 1305.52 897.177C1304.46 896.957 1303.48 896.425 1302.71 895.649C1301.94 894.873 1301.42 893.887 1301.21 892.815C1301 891.743 1301.12 890.633 1301.54 889.625C1301.96 888.617 1302.66 887.756 1303.57 887.15C1304.48 886.544 1305.55 886.221 1306.64 886.221C1307.37 886.223 1308.09 886.37 1308.77 886.653C1309.44 886.935 1310.05 887.348 1310.57 887.868C1311.08 888.388 1311.49 889.004 1311.76 889.681C1312.04 890.358 1312.18 891.083 1312.17 891.814V891.814Z" fill="#808285"/>
<path opacity="0.87" d="M1312.17 841.267C1312.16 842.359 1311.82 843.423 1311.21 844.325C1310.6 845.228 1309.73 845.928 1308.72 846.338C1307.7 846.748 1306.59 846.85 1305.52 846.629C1304.46 846.409 1303.48 845.878 1302.71 845.101C1301.94 844.325 1301.42 843.339 1301.21 842.267C1301 841.195 1301.12 840.085 1301.54 839.077C1301.96 838.069 1302.66 837.208 1303.57 836.602C1304.48 835.996 1305.55 835.673 1306.64 835.673C1307.37 835.674 1308.09 835.82 1308.77 836.102C1309.44 836.384 1310.05 836.798 1310.57 837.317C1311.08 837.837 1311.49 838.454 1311.76 839.132C1312.04 839.809 1312.18 840.535 1312.17 841.267V841.267Z" fill="#808285"/>
<path opacity="0.67" d="M1160.41 474.712C1160.4 475.804 1160.06 476.867 1159.45 477.769C1158.83 478.67 1157.96 479.369 1156.95 479.778C1155.94 480.186 1154.83 480.287 1153.76 480.066C1152.69 479.845 1151.71 479.312 1150.95 478.535C1150.18 477.759 1149.66 476.773 1149.45 475.701C1149.24 474.629 1149.36 473.519 1149.78 472.512C1150.2 471.505 1150.91 470.644 1151.81 470.039C1152.72 469.433 1153.79 469.11 1154.88 469.11C1155.61 469.115 1156.33 469.263 1157.01 469.547C1157.68 469.831 1158.29 470.245 1158.8 470.765C1159.32 471.285 1159.72 471.901 1160 472.578C1160.27 473.256 1160.41 473.981 1160.41 474.712Z" fill="#808285"/>
<path opacity="0.94" d="M1117.06 449.413C1117.05 450.507 1116.72 451.575 1116.11 452.482C1115.5 453.389 1114.63 454.094 1113.62 454.509C1112.61 454.924 1111.49 455.03 1110.42 454.814C1109.35 454.597 1108.37 454.068 1107.59 453.294C1106.82 452.519 1106.3 451.532 1106.08 450.459C1105.87 449.386 1105.98 448.274 1106.4 447.262C1106.82 446.251 1107.52 445.386 1108.43 444.777C1109.34 444.167 1110.41 443.84 1111.5 443.837C1112.23 443.838 1112.95 443.983 1113.63 444.264C1114.3 444.544 1114.92 444.955 1115.43 445.473C1115.95 445.991 1116.36 446.606 1116.64 447.282C1116.91 447.958 1117.06 448.682 1117.06 449.413V449.413Z" fill="#808285"/>
<path opacity="0.83" d="M1225.46 411.527C1225.45 412.623 1225.12 413.692 1224.5 414.598C1223.89 415.504 1223.02 416.208 1222 416.621C1220.99 417.033 1219.87 417.136 1218.8 416.916C1217.73 416.696 1216.75 416.164 1215.97 415.385C1215.2 414.607 1214.68 413.618 1214.47 412.542C1214.26 411.467 1214.37 410.353 1214.79 409.342C1215.22 408.33 1215.93 407.466 1216.84 406.858C1217.75 406.25 1218.82 405.926 1219.91 405.926C1220.65 405.929 1221.37 406.077 1222.04 406.36C1222.72 406.643 1223.33 407.057 1223.85 407.577C1224.36 408.097 1224.77 408.714 1225.05 409.391C1225.32 410.069 1225.46 410.795 1225.46 411.527V411.527Z" fill="#808285"/>
<path opacity="0.88" d="M1138.73 360.946C1138.72 362.041 1138.38 363.108 1137.77 364.013C1137.16 364.918 1136.29 365.621 1135.27 366.032C1134.26 366.444 1133.15 366.546 1132.08 366.326C1131 366.106 1130.02 365.573 1129.25 364.795C1128.48 364.017 1127.96 363.029 1127.75 361.954C1127.54 360.88 1127.66 359.768 1128.08 358.758C1128.5 357.748 1129.21 356.886 1130.12 356.28C1131.03 355.674 1132.1 355.351 1133.2 355.353C1133.93 355.356 1134.65 355.504 1135.32 355.787C1136 356.07 1136.61 356.483 1137.12 357.002C1137.64 357.522 1138.04 358.137 1138.32 358.814C1138.59 359.491 1138.73 360.215 1138.73 360.946V360.946Z" fill="#808285"/>
<path opacity="0.72" d="M1052 411.527C1051.99 412.619 1051.65 413.683 1051.04 414.584C1050.42 415.485 1049.56 416.184 1048.54 416.593C1047.53 417.002 1046.42 417.102 1045.35 416.881C1044.29 416.66 1043.31 416.128 1042.54 415.351C1041.77 414.574 1041.25 413.588 1041.04 412.516C1040.84 411.444 1040.95 410.335 1041.37 409.328C1041.79 408.32 1042.5 407.46 1043.41 406.854C1044.32 406.249 1045.38 405.926 1046.47 405.926C1047.2 405.93 1047.93 406.079 1048.6 406.362C1049.27 406.646 1049.88 407.06 1050.4 407.58C1050.91 408.1 1051.32 408.717 1051.59 409.394C1051.87 410.071 1052.01 410.796 1052 411.527V411.527Z" fill="#808285"/>
<path opacity="0.85" d="M1398.9 714.872C1398.89 715.964 1398.55 717.027 1397.94 717.929C1397.32 718.83 1396.45 719.529 1395.44 719.938C1394.43 720.347 1393.32 720.447 1392.25 720.226C1391.18 720.005 1390.21 719.472 1389.44 718.696C1388.67 717.919 1388.15 716.933 1387.94 715.861C1387.74 714.789 1387.85 713.68 1388.27 712.672C1388.69 711.665 1389.4 710.804 1390.31 710.199C1391.21 709.594 1392.28 709.271 1393.37 709.271C1394.1 709.274 1394.83 709.421 1395.5 709.705C1396.17 709.988 1396.79 710.402 1397.3 710.923C1397.81 711.443 1398.22 712.06 1398.49 712.737C1398.77 713.415 1398.91 714.141 1398.9 714.872V714.872Z" fill="#808285"/>
<path opacity="0.72" d="M1398.9 613.743C1398.89 614.835 1398.56 615.9 1397.94 616.802C1397.33 617.705 1396.46 618.405 1395.45 618.815C1394.44 619.225 1393.33 619.327 1392.26 619.106C1391.19 618.886 1390.21 618.355 1389.44 617.578C1388.67 616.802 1388.15 615.816 1387.94 614.744C1387.74 613.671 1387.85 612.562 1388.27 611.554C1388.69 610.546 1389.4 609.684 1390.31 609.079C1391.21 608.473 1392.28 608.15 1393.37 608.15C1394.1 608.153 1394.83 608.301 1395.5 608.583C1396.17 608.866 1396.78 609.279 1397.3 609.799C1397.81 610.318 1398.22 610.934 1398.49 611.611C1398.77 612.288 1398.91 613.012 1398.9 613.743Z" fill="#808285"/>
<path opacity="0.75" d="M1440 634.524C1439.06 633.815 1437.91 633.429 1436.73 633.424C1435.84 633.413 1434.96 633.614 1434.16 634.011C1433.37 634.407 1432.68 634.988 1432.15 635.704C1431.62 636.42 1431.27 637.252 1431.13 638.13C1430.99 639.009 1431.06 639.908 1431.33 640.754C1431.61 641.6 1432.08 642.369 1432.71 642.996C1433.34 643.624 1434.11 644.092 1434.96 644.362C1435.8 644.632 1436.7 644.697 1437.58 644.55C1438.46 644.403 1439.29 644.05 1440 643.519V634.524Z" fill="#808285"/>
<path opacity="0.93" d="M1052 815.968C1052 817.061 1051.66 818.127 1051.05 819.031C1050.44 819.936 1049.57 820.639 1048.56 821.051C1047.55 821.464 1046.44 821.568 1045.37 821.349C1044.3 821.131 1043.32 820.601 1042.55 819.825C1041.78 819.049 1041.26 818.063 1041.05 816.991C1040.84 815.918 1040.95 814.807 1041.37 813.798C1041.79 812.789 1042.5 811.928 1043.4 811.321C1044.31 810.715 1045.38 810.391 1046.47 810.391C1047.94 810.4 1049.35 810.992 1050.39 812.037C1051.43 813.082 1052.01 814.495 1052 815.968Z" fill="#808285"/>
<path opacity="0.95" d="M1398.9 815.968C1398.89 817.061 1398.56 818.127 1397.95 819.031C1397.34 819.936 1396.47 820.639 1395.46 821.051C1394.45 821.464 1393.34 821.568 1392.27 821.349C1391.2 821.131 1390.22 820.601 1389.45 819.825C1388.68 819.049 1388.16 818.063 1387.95 816.991C1387.74 815.918 1387.85 814.807 1388.27 813.798C1388.69 812.789 1389.4 811.928 1390.3 811.321C1391.21 810.715 1392.28 810.391 1393.37 810.391C1394.84 810.4 1396.25 810.992 1397.29 812.037C1398.32 813.082 1398.91 814.495 1398.9 815.968Z" fill="#808285"/>
<path opacity="0.55" d="M1312.17 462.05C1312.16 463.143 1311.83 464.209 1311.22 465.114C1310.61 466.018 1309.74 466.721 1308.73 467.134C1307.72 467.546 1306.6 467.65 1305.53 467.432C1304.46 467.214 1303.48 466.683 1302.71 465.907C1301.94 465.132 1301.42 464.145 1301.21 463.073C1301 462 1301.11 460.89 1301.53 459.881C1301.95 458.872 1302.66 458.01 1303.57 457.403C1304.48 456.797 1305.55 456.474 1306.64 456.474C1307.37 456.476 1308.09 456.622 1308.76 456.903C1309.44 457.185 1310.05 457.596 1310.56 458.114C1311.07 458.632 1311.48 459.246 1311.76 459.922C1312.03 460.597 1312.17 461.32 1312.17 462.05V462.05Z" fill="#808285"/>
<path opacity="0.59" d="M1312.17 664.299C1312.16 665.391 1311.82 666.455 1311.21 667.356C1310.59 668.257 1309.72 668.956 1308.71 669.365C1307.7 669.774 1306.59 669.874 1305.52 669.653C1304.45 669.432 1303.47 668.9 1302.71 668.123C1301.94 667.346 1301.42 666.36 1301.21 665.288C1301 664.216 1301.12 663.107 1301.54 662.1C1301.96 661.092 1302.67 660.232 1303.57 659.626C1304.48 659.021 1305.55 658.698 1306.64 658.698C1307.37 658.7 1308.09 658.847 1308.77 659.13C1309.44 659.413 1310.05 659.827 1310.57 660.348C1311.08 660.868 1311.49 661.485 1311.76 662.163C1312.04 662.842 1312.18 663.568 1312.17 664.299V664.299Z" fill="#808285"/>
</g>
<g opacity="0.08">
<path opacity="0.9" d="M1106.09 68.5182L1142.06 89.4945V131.42L1141.87 131.536L1106.09 152.396L1070.12 131.42V89.4945L1070.31 89.3781L1106.09 68.5182ZM1141.3 89.9254L1106.09 69.4007L1070.88 89.9254V130.975L1106.09 151.5L1141.3 130.975V89.9254Z" fill="#808285"/>
<path opacity="0.86" d="M1106.09 27.0242L1177.66 68.7578V152.225L1177.47 152.321L1106.09 193.931L1034.53 152.198V68.7304L1034.71 68.6279L1106.09 27.0242ZM1176.9 69.182L1106.09 27.9136L1035.28 69.182V151.732L1106.09 193.001L1176.9 151.732V69.182Z" fill="#808285"/>
<path opacity="0.57" d="M1058.22 -2.50745e-05L1105.71 27.6741V193.24L963.721 276.003L821.724 193.24V27.6741L869.213 -2.50745e-05H867.696L821.156 27.1268L820.958 27.2431V193.671L963.523 276.769L963.721 276.885L1106.28 193.788L1106.47 193.671V27.2431L1059.74 -2.50745e-05H1058.22Z" fill="#808285"/>
<path opacity="0.87" d="M1010.07 -6.19689e-05L963.721 27.0244L917.366 -6.19689e-05H915.848L963.721 27.9138L1011.59 -6.19689e-05H1010.07Z" fill="#808285"/>
<path opacity="0.55" d="M1105.71 2.90068e-05V27.2432L963.721 110.006L821.724 27.2432V2.90068e-05H820.958V27.6742L963.523 110.793L963.721 110.895L1106.28 27.7905L1106.47 27.6742V2.90068e-05H1105.71Z" fill="#808285"/>
<path opacity="0.88" d="M963.721 27.0242L1035.28 68.7578V152.225L1035.1 152.321L963.721 193.931L892.145 152.198V68.7304L892.343 68.6279L963.721 27.0242ZM1034.53 69.182L963.721 27.9136L892.91 69.182V151.732L963.714 193.001L1034.52 151.732L1034.53 69.182Z" fill="#808285"/>
<path opacity="0.52" d="M844.655 2.41728e-06L856.558 6.93053V47.9869L821.341 68.5185L786.124 47.9869V6.93053L798.02 2.41728e-06H796.502L785.365 6.49951V48.4385L821.341 69.401L857.31 48.4385V6.49951L846.18 2.41728e-06H844.655Z" fill="#808285"/>
<path opacity="0.75" d="M1010.07 -6.19689e-05L963.721 27.0244L917.366 -6.19689e-05H915.848L963.721 27.9138L1011.59 -6.19689e-05H1010.07Z" fill="#808285"/>
<path opacity="0.52" d="M963.721 172.257L981.901 182.862V204.07L981.702 204.187L963.721 214.661L945.541 204.07V182.862L945.726 182.745L963.721 172.257ZM981.107 183.299L963.694 173.146L946.266 183.299V203.612L963.694 213.765L981.107 203.612V183.299Z" fill="#808285"/>
<path opacity="0.99" d="M678.96 110.006L679.159 110.122L750.537 151.733V235.2L750.352 235.316L678.96 276.92L678.776 276.803L607.398 235.2V151.733L607.582 151.63L678.96 110.006ZM749.785 152.184L678.96 110.888L608.15 152.184V234.728L678.96 276.003L749.785 234.728V152.184Z" fill="#808285"/>
<path opacity="0.52" d="M678.96 6.26697L697.133 16.8713V38.0458L678.96 48.657L660.801 38.0458V16.8713L678.96 6.26697ZM696.388 17.3023L678.96 7.14947L661.547 17.3023V37.6285L678.96 47.7881L696.388 37.6285V17.3023Z" fill="#808285"/>
<path opacity="0.65" d="M749.778 2.90068e-05V68.7305L678.96 110.006L608.15 68.7305V2.90068e-05H607.398V69.1821L678.776 110.793L678.96 110.895L750.345 69.2847L750.537 69.1821V2.90068e-05H749.778Z" fill="#808285"/>
<path opacity="0.77" d="M536.594 110.006L536.779 110.122L608.15 151.733V235.2L607.965 235.316L536.594 276.92L536.396 276.803L465.017 235.2V151.733L465.222 151.63L536.594 110.006ZM607.398 152.184L536.594 110.888L465.783 152.184V234.728L536.594 276.003L607.398 234.728V152.184Z" fill="#808285"/>
<path opacity="0.81" d="M773.468 -2.50745e-05L820.958 27.6741V193.24L678.961 276.003L536.957 193.24V27.6741L584.453 -2.50745e-05H582.949L536.396 27.1268L536.211 27.2431V193.671L678.776 276.769L678.961 276.885L821.525 193.788L821.724 193.671V27.2431L774.986 -2.50745e-05H773.468Z" fill="#808285"/>
<path d="M536.594 6.26697L554.767 16.8713V38.0458L536.594 48.657L518.414 38.0458V16.8713L536.594 6.26697ZM554.001 17.3023L536.594 7.14947L519.166 17.3023V37.6285L536.594 47.7881L554.001 37.6285V17.3023Z" fill="#808285"/>
<path opacity="0.63" d="M892.145 2.90068e-05V68.7305L821.341 110.006L750.537 68.7305V2.90068e-05H749.778V69.1821L821.156 110.793L821.341 110.895L892.712 69.2847L892.897 69.1821V2.90068e-05H892.145Z" fill="#808285"/>
<path opacity="0.6" d="M892.145 2.90068e-05V68.7305L821.341 110.006L750.537 68.7305V2.90068e-05H749.778V69.1821L821.156 110.793L821.341 110.895L892.712 69.2847L892.897 69.1821V2.90068e-05H892.145Z" fill="#808285"/>
<path opacity="0.6" d="M725.315 -6.19689e-05L678.96 27.0244L632.619 -6.19689e-05H631.102L678.96 27.9138L726.833 -6.19689e-05H725.315Z" fill="#808285"/>
<path opacity="0.56" d="M678.96 110.006L679.159 110.122L750.537 151.733V235.2L750.352 235.316L678.96 276.92L678.776 276.803L607.398 235.2V151.733L607.582 151.63L678.96 110.006ZM749.785 152.184L678.96 110.888L608.15 152.184V234.728L678.96 276.003L749.785 234.728V152.184Z" fill="#808285"/>
<path opacity="0.95" d="M536.594 27.0242L608.15 68.7578V152.225L607.965 152.321L536.594 193.931L465.017 152.198V68.7304L465.222 68.6279L536.594 27.0242ZM607.398 69.182L536.594 27.9136L465.783 69.182V151.732L536.594 193.001L607.398 151.732V69.182Z" fill="#808285"/>
<path opacity="0.83" d="M394.214 110.006L394.398 110.122L536.963 193.24V359.668L536.779 359.764L394.214 442.882L394.029 442.766L251.464 359.668V193.24L251.649 193.117L394.214 110.006ZM536.211 193.671L394.214 110.888L252.216 193.671V359.183L394.214 441.966L536.211 359.183V193.671Z" fill="#808285"/>
<path opacity="0.96" d="M536.594 338.254L554.767 348.845V370.054L554.568 370.15L536.594 380.645L518.414 370.054V348.845L518.599 348.742L536.594 338.254ZM554.001 349.297L536.594 339.137L519.166 349.297V369.589L536.594 379.707L554.001 369.554V349.297Z" fill="#808285"/>
<path opacity="0.69" d="M251.834 276.003L252.032 276.119L323.389 317.73V401.156L323.212 401.272L251.82 442.882L251.635 442.766L180.257 401.156V317.73L180.442 317.606L251.834 276.003ZM322.651 318.133L251.834 276.858L181.023 318.133V400.725L251.834 441.966L322.651 400.69V318.133Z" fill="#808285"/>
<path opacity="0.55" d="M394.214 68.5182L430.183 89.4945V131.42L429.998 131.536L394.214 152.396L358.244 131.42V89.4945L358.422 89.3781L394.214 68.5182ZM429.431 89.9254L394.214 69.4007L358.989 89.9254V130.975L394.214 151.5L429.431 130.975V89.9254Z" fill="#808285"/>
<path opacity="0.8" d="M394.214 193.001L394.398 193.117L465.783 234.728V318.133L465.585 318.25L394.214 359.867L394.029 359.751L322.651 318.147V234.68L322.835 234.563L394.214 193.001ZM465.017 235.166L394.214 193.89L323.389 235.166V317.73L394.2 358.998L465.004 317.73L465.017 235.166Z" fill="#808285"/>
<path opacity="0.5" d="M440.569 -6.19689e-05L394.214 27.0244L347.859 -6.19689e-05H346.341L394.214 27.9138L442.087 -6.19689e-05H440.569Z" fill="#808285"/>
<path opacity="0.76" d="M607.398 2.90068e-05V68.7305L536.594 110.006L465.79 68.7305V2.90068e-05H465.017V69.1821L536.396 110.793L536.594 110.895L607.965 69.2847L608.15 69.1821V2.90068e-05H607.398Z" fill="#808285"/>
<path opacity="0.93" d="M394.214 27.0242L465.783 68.7578V152.225L465.585 152.321L394.214 193.931L322.651 152.198V68.7304L322.835 68.6279L394.214 27.0242ZM465.017 69.182L394.214 27.9136L323.389 69.182V151.732L394.2 193.001L465.004 151.732L465.017 69.182Z" fill="#808285"/>
<path opacity="0.67" d="M275.168 2.41728e-06L287.051 6.93053V47.9869L251.834 68.5185L216.623 47.9869V6.93053L228.513 2.41728e-06H227.008L215.857 6.49951V48.4385L251.834 69.401L287.816 48.4385V6.49951L276.665 2.41728e-06H275.168Z" fill="#808285"/>
<path opacity="0.56" d="M440.569 -6.19689e-05L394.214 27.0244L347.859 -6.19689e-05H346.341L394.214 27.9138L442.087 -6.19689e-05H440.569Z" fill="#808285"/>
<path opacity="0.93" d="M109.467 441.966L109.652 442.082L181.023 483.699V567.166L180.838 567.276L109.467 608.88L37.8907 567.146V483.699L38.089 483.583L109.467 441.966ZM180.271 484.123L109.467 442.848L38.6566 484.123V566.708L109.467 607.983L180.271 566.708V484.123Z" fill="#808285"/>
<path opacity="0.64" d="M109.467 276.003L181.023 317.736V401.156L180.838 401.272L109.467 442.882L37.8907 401.149V317.723L38.089 317.6L109.467 276.003ZM180.271 318.133L109.467 276.858L38.6566 318.133V400.725L109.467 441.966L180.271 400.69V318.133Z" fill="#808285"/>
<path opacity="0.89" d="M251.834 110.006L252.032 110.122L394.597 193.24V359.668L394.398 359.764L251.834 442.882L251.649 442.766L109.084 359.668V193.24L109.269 193.117L251.834 110.006ZM393.81 193.671L251.82 110.888L109.823 193.671V359.183L251.834 441.966L393.81 359.183V193.671Z" fill="#808285"/>
<path opacity="0.65" d="M394.214 338.254L412.387 348.845V370.054L412.209 370.15L394.214 380.645L376.034 370.04V348.831L376.232 348.729L394.214 338.254ZM411.642 349.297L394.214 339.137L376.8 349.297V369.589L394.214 379.707L411.642 369.554V349.297Z" fill="#808285"/>
<path opacity="0.62" d="M394.214 172.257L412.387 182.862V204.07L412.209 204.187L394.214 214.661L376.034 204.07V182.862L376.232 182.745L394.214 172.257ZM411.642 183.299L394.214 173.146L376.8 183.299V203.612L394.214 213.765L411.642 203.612V183.299Z" fill="#808285"/>
<path opacity="0.99" d="M109.467 6.26697L127.646 16.8713V38.0458L109.467 48.657L91.2875 38.0458V16.8713L109.467 6.26697ZM126.874 17.3023L109.467 7.14947L92.0396 17.3023V37.6285L109.467 47.7881L126.874 37.6285V17.3023Z" fill="#808285"/>
<path opacity="0.52" d="M251.834 338.254L270.006 348.845V370.054L269.822 370.15L251.834 380.645L233.668 370.054V348.845L233.852 348.742L251.834 338.254ZM269.254 349.297L251.834 339.137L234.42 349.297V369.589L251.834 379.707L269.254 369.554V349.297Z" fill="#808285"/>
<path opacity="0.51" d="M251.834 276.003L252.032 276.119L323.389 317.73V401.156L323.212 401.272L251.82 442.882L251.635 442.766L180.257 401.156V317.73L180.442 317.606L251.834 276.003ZM322.651 318.133L251.834 276.858L181.023 318.133V400.725L251.834 441.966L322.651 400.69V318.133Z" fill="#808285"/>
<path opacity="0.65" d="M6.14498e-07 130.086L37.8907 152.184V234.728L6.14498e-07 256.826V257.695L38.4582 235.282L38.6565 235.159V151.733L6.14498e-07 129.196V130.086Z" fill="#808285"/>
<path opacity="0.51" d="M109.467 27.0242L181.023 68.7578V152.225L180.838 152.321L109.467 193.931L37.8907 152.198V68.7304L38.089 68.6279L109.467 27.0242ZM180.271 69.182L109.467 27.9136L38.6566 69.182V151.732L109.467 193.001L180.271 151.732V69.182Z" fill="#808285"/>
<path opacity="0.65" d="M-4.19677e-08 171.593L2.30417 172.928V213.984L-4.19677e-08 215.318V216.207L2.87154 214.538L3.05615 214.415V172.476L-4.19677e-08 170.704V171.593Z" fill="#808285"/>
<path opacity="0.72" d="M155.822 -6.19689e-05L109.467 27.0244L63.112 -6.19689e-05H61.5942L109.467 27.9138L157.339 -6.19689e-05H155.822Z" fill="#808285"/>
<path opacity="0.69" d="M322.658 2.90068e-05V68.7305L251.834 110.006L181.023 68.7305V2.90068e-05H180.271V69.1821L251.649 110.793L251.834 110.895L323.205 69.2847L323.403 69.1821V2.90068e-05H322.658Z" fill="#808285"/>
<path opacity="0.85" d="M109.467 27.0242L181.023 68.7578V152.225L180.838 152.321L109.467 193.931L37.8907 152.198V68.7304L38.089 68.6279L109.467 27.0242ZM180.271 69.182L109.467 27.9136L38.6566 69.182V151.732L109.467 193.001L180.271 151.732V69.182Z" fill="#808285"/>
<path opacity="0.81" d="M3.1649e-07 130.086L109.084 193.671V359.217L3.1649e-07 422.802V423.692L109.645 359.771L109.829 359.668V193.24L3.1649e-07 129.196V130.086Z" fill="#808285"/>
<path opacity="0.64" d="M61.5945 6.28267e-05L109.084 27.6742V193.24L3.1649e-07 256.826V257.695L109.645 193.788L109.829 193.671V27.2432L63.1123 6.28267e-05H61.5945Z" fill="#808285"/>
<path d="M6.14498e-07 213.081L37.8907 235.159V317.723L6.14498e-07 339.807V340.69L38.4582 318.277L38.6565 318.161V234.728L6.14498e-07 212.192V213.081Z" fill="#808285"/>
<path opacity="0.98" d="M13.4349 -1.90164e-07L-3.79339e-07 7.83337V8.71594L14.9529 -1.90164e-07H13.4349Z" fill="#808285"/>
<path opacity="0.63" d="M13.4349 -1.90164e-07L-3.79339e-07 7.83337V8.71594L14.9529 -1.90164e-07H13.4349Z" fill="#808285"/>
<path opacity="0.85" d="M6.14498e-07 462.059L37.8907 484.151V566.708L6.14498e-07 588.8V589.675L38.4582 567.262L38.6565 567.153V483.72L6.14498e-07 461.19V462.059Z" fill="#808285"/>
<path opacity="0.68" d="M37.8907 -3.49132e-06V68.7305L6.14498e-07 90.8288V91.7183L38.4582 69.2847L38.6565 69.1821V-3.49132e-06H37.8907Z" fill="#808285"/>
<path opacity="0.69" d="M1065.96 89.7137C1065.97 88.8167 1066.24 87.9418 1066.74 87.1992C1067.25 86.4567 1067.96 85.8798 1068.79 85.5412C1069.62 85.2026 1070.53 85.1174 1071.41 85.2966C1072.29 85.4757 1073.09 85.911 1073.72 86.5477C1074.35 87.1844 1074.78 87.9938 1074.96 88.8741C1075.13 89.7544 1075.04 90.666 1074.69 91.4941C1074.35 92.3222 1073.77 93.0297 1073.02 93.5274C1072.27 94.0251 1071.4 94.2906 1070.5 94.2906C1069.9 94.2889 1069.31 94.169 1068.76 93.938C1068.21 93.7069 1067.7 93.3692 1067.28 92.9441C1066.86 92.5189 1066.53 92.0148 1066.3 91.4605C1066.07 90.9062 1065.96 90.3126 1065.96 89.7137Z" fill="#808285"/>
<path opacity="0.52" d="M1172.73 68.9699C1172.74 68.0713 1173.01 67.1944 1173.51 66.4498C1174.02 65.7052 1174.73 65.1263 1175.56 64.7862C1176.39 64.446 1177.3 64.3598 1178.18 64.5384C1179.06 64.717 1179.87 65.1525 1180.51 65.7899C1181.14 66.4272 1181.57 67.2379 1181.74 68.1197C1181.92 69.0015 1181.82 69.9149 1181.48 70.7446C1181.13 71.5744 1180.55 72.2832 1179.8 72.782C1179.06 73.2807 1178.18 73.5469 1177.28 73.5469C1176.07 73.5414 1174.91 73.0566 1174.06 72.1986C1173.21 71.3407 1172.73 70.1797 1172.73 68.9699V68.9699Z" fill="#808285"/>
<path opacity="0.78" d="M1030.33 151.945C1030.34 151.049 1030.62 150.176 1031.12 149.437C1031.63 148.697 1032.34 148.123 1033.17 147.787C1034 147.452 1034.91 147.369 1035.79 147.55C1036.67 147.731 1037.47 148.167 1038.1 148.804C1038.73 149.441 1039.16 150.25 1039.33 151.129C1039.5 152.008 1039.41 152.918 1039.06 153.745C1038.72 154.572 1038.14 155.279 1037.39 155.777C1036.65 156.274 1035.78 156.541 1034.88 156.542C1034.28 156.54 1033.69 156.42 1033.13 156.188C1032.58 155.955 1032.07 155.616 1031.65 155.189C1031.23 154.761 1030.9 154.255 1030.67 153.698C1030.44 153.141 1030.33 152.546 1030.33 151.945V151.945Z" fill="#808285"/>
<path opacity="0.81" d="M1172.73 151.945C1172.74 151.047 1173.02 150.172 1173.52 149.43C1174.03 148.688 1174.74 148.113 1175.57 147.776C1176.41 147.439 1177.32 147.355 1178.2 147.536C1179.08 147.717 1179.88 148.154 1180.51 148.792C1181.14 149.43 1181.57 150.241 1181.74 151.122C1181.91 152.004 1181.82 152.916 1181.48 153.744C1181.13 154.573 1180.55 155.281 1179.8 155.779C1179.06 156.276 1178.18 156.542 1177.28 156.542C1176.68 156.54 1176.09 156.42 1175.53 156.188C1174.98 155.955 1174.48 155.616 1174.05 155.189C1173.63 154.761 1173.3 154.255 1173.07 153.698C1172.84 153.142 1172.73 152.546 1172.73 151.945V151.945Z" fill="#808285"/>
<path opacity="0.99" d="M887.988 151.945C887.997 151.047 888.272 150.172 888.777 149.43C889.282 148.688 889.996 148.113 890.827 147.776C891.659 147.439 892.571 147.355 893.45 147.536C894.329 147.717 895.135 148.154 895.766 148.792C896.397 149.43 896.825 150.241 896.997 151.122C897.168 152.004 897.075 152.916 896.73 153.744C896.384 154.573 895.802 155.281 895.055 155.779C894.309 156.276 893.431 156.542 892.534 156.542C891.934 156.54 891.339 156.42 890.785 156.188C890.231 155.955 889.729 155.616 889.306 155.189C888.884 154.761 888.55 154.255 888.324 153.698C888.097 153.142 887.983 152.546 887.988 151.945V151.945Z" fill="#808285"/>
<path opacity="0.99" d="M959.181 110.457C959.192 109.561 959.467 108.688 959.973 107.949C960.478 107.209 961.191 106.635 962.021 106.3C962.852 105.964 963.763 105.882 964.64 106.063C965.517 106.245 966.32 106.682 966.95 107.319C967.579 107.956 968.006 108.766 968.177 109.646C968.348 110.525 968.255 111.436 967.91 112.263C967.565 113.09 966.983 113.796 966.237 114.293C965.492 114.789 964.616 115.055 963.721 115.055C963.121 115.053 962.527 114.932 961.973 114.7C961.42 114.468 960.917 114.128 960.495 113.701C960.073 113.273 959.74 112.767 959.515 112.21C959.289 111.654 959.176 111.058 959.181 110.457V110.457Z" fill="#808285"/>
<path opacity="0.54" d="M852.387 6.71831C852.394 5.81803 852.667 4.93999 853.172 4.1949C853.677 3.44982 854.392 2.87109 855.225 2.53186C856.059 2.19264 856.974 2.10815 857.855 2.28892C858.736 2.46969 859.545 2.90763 860.177 3.54758C860.81 4.18752 861.239 5.00076 861.411 5.88458C861.582 6.7684 861.488 7.68321 861.14 8.51356C860.793 9.34391 860.207 10.0525 859.457 10.5501C858.707 11.0476 857.827 11.3117 856.927 11.3091C855.717 11.3018 854.559 10.8143 853.708 9.95353C852.857 9.0928 852.382 7.92922 852.387 6.71831V6.71831Z" fill="#808285"/>
<path opacity="0.81" d="M941.371 203.824C941.379 202.925 941.653 202.048 942.158 201.305C942.663 200.561 943.376 199.983 944.208 199.645C945.041 199.306 945.955 199.221 946.835 199.401C947.715 199.581 948.523 200.017 949.156 200.655C949.789 201.294 950.219 202.105 950.392 202.987C950.565 203.869 950.474 204.783 950.129 205.614C949.784 206.444 949.202 207.154 948.455 207.653C947.708 208.153 946.83 208.42 945.931 208.422C945.33 208.42 944.735 208.3 944.18 208.067C943.625 207.835 943.122 207.496 942.698 207.069C942.275 206.642 941.94 206.136 941.712 205.579C941.484 205.022 941.368 204.426 941.371 203.824Z" fill="#808285"/>
<path opacity="0.77" d="M745.607 151.945C745.618 151.048 745.894 150.176 746.399 149.436C746.904 148.696 747.617 148.122 748.447 147.787C749.278 147.451 750.189 147.369 751.066 147.551C751.943 147.732 752.747 148.169 753.376 148.806C754.006 149.444 754.433 150.253 754.603 151.133C754.774 152.013 754.681 152.923 754.336 153.75C753.991 154.577 753.409 155.283 752.664 155.78C751.918 156.277 751.043 156.542 750.147 156.542C749.547 156.539 748.954 156.418 748.4 156.186C747.847 155.953 747.345 155.613 746.924 155.186C746.502 154.759 746.169 154.253 745.943 153.697C745.717 153.14 745.603 152.545 745.607 151.945V151.945Z" fill="#808285"/>
<path opacity="0.54" d="M674.414 110.457C674.422 109.557 674.696 108.68 675.201 107.936C675.707 107.192 676.421 106.615 677.254 106.276C678.088 105.938 679.002 105.854 679.883 106.035C680.764 106.216 681.571 106.654 682.204 107.293C682.836 107.933 683.265 108.745 683.437 109.629C683.608 110.512 683.515 111.426 683.168 112.256C682.821 113.086 682.236 113.795 681.488 114.293C680.739 114.791 679.859 115.056 678.96 115.055C677.748 115.047 676.589 114.559 675.737 113.697C674.884 112.835 674.408 111.67 674.414 110.457V110.457Z" fill="#808285"/>
<path opacity="0.85" d="M603.227 151.945C603.235 151.045 603.509 150.169 604.014 149.425C604.519 148.681 605.232 148.104 606.065 147.765C606.897 147.426 607.811 147.341 608.691 147.521C609.572 147.701 610.379 148.138 611.012 148.776C611.645 149.414 612.075 150.225 612.249 151.107C612.422 151.99 612.33 152.904 611.985 153.734C611.641 154.564 611.058 155.274 610.311 155.774C609.564 156.273 608.686 156.541 607.787 156.542C607.186 156.541 606.591 156.421 606.035 156.19C605.48 155.958 604.976 155.619 604.553 155.191C604.129 154.764 603.794 154.257 603.566 153.7C603.339 153.143 603.224 152.546 603.227 151.945V151.945Z" fill="#808285"/>
<path opacity="0.56" d="M603.227 234.947C603.234 234.047 603.507 233.17 604.011 232.425C604.515 231.68 605.228 231.102 606.06 230.762C606.892 230.422 607.806 230.336 608.687 230.515C609.568 230.695 610.376 231.131 611.01 231.768C611.643 232.406 612.074 233.218 612.248 234.1C612.422 234.983 612.331 235.897 611.986 236.728C611.642 237.558 611.059 238.268 610.312 238.768C609.565 239.268 608.686 239.536 607.788 239.537C607.187 239.536 606.592 239.417 606.037 239.186C605.483 238.954 604.979 238.616 604.555 238.189C604.132 237.763 603.796 237.257 603.568 236.7C603.341 236.144 603.225 235.548 603.227 234.947Z" fill="#808285"/>
<path opacity="0.85" d="M674.414 276.454C674.418 275.554 674.689 274.675 675.192 273.928C675.695 273.181 676.408 272.6 677.241 272.259C678.073 271.917 678.989 271.83 679.871 272.009C680.753 272.188 681.562 272.624 682.196 273.263C682.831 273.901 683.262 274.714 683.435 275.598C683.609 276.481 683.516 277.397 683.17 278.228C682.824 279.059 682.239 279.769 681.49 280.268C680.741 280.767 679.86 281.033 678.96 281.031C677.752 281.024 676.596 280.539 675.744 279.681C674.892 278.824 674.414 277.663 674.414 276.454V276.454Z" fill="#808285"/>
<path opacity="0.61" d="M692.211 37.834C692.218 36.9346 692.49 36.0573 692.994 35.3127C693.498 34.568 694.212 33.9894 695.044 33.6496C695.876 33.3098 696.79 33.224 697.671 33.4031C698.552 33.5822 699.36 34.0181 699.993 34.656C700.627 35.2939 701.058 36.1052 701.232 36.9876C701.405 37.8701 701.314 38.7842 700.97 39.6149C700.625 40.4456 700.042 41.1557 699.295 41.6557C698.548 42.1556 697.67 42.4232 696.771 42.4246C696.17 42.4237 695.575 42.3041 695.021 42.0727C694.466 41.8414 693.962 41.5028 693.539 41.0763C693.115 40.6499 692.78 40.144 692.552 39.5876C692.324 39.0312 692.208 38.4353 692.211 37.834V37.834Z" fill="#808285"/>
<path opacity="0.77" d="M532.054 110.457C532.065 109.561 532.34 108.688 532.845 107.949C533.351 107.209 534.064 106.635 534.894 106.3C535.725 105.964 536.636 105.882 537.513 106.063C538.39 106.245 539.193 106.682 539.823 107.319C540.452 107.956 540.879 108.766 541.05 109.646C541.221 110.525 541.128 111.436 540.783 112.263C540.437 113.09 539.856 113.796 539.11 114.293C538.365 114.789 537.489 115.055 536.594 115.055C535.994 115.053 535.399 114.932 534.846 114.7C534.292 114.468 533.79 114.128 533.368 113.701C532.946 113.273 532.613 112.767 532.387 112.21C532.162 111.654 532.048 111.058 532.054 110.457V110.457Z" fill="#808285"/>
<path opacity="0.91" d="M549.844 17.1039C549.852 16.2058 550.126 15.3302 550.63 14.5874C551.135 13.8447 551.847 13.268 552.679 12.9299C553.51 12.5918 554.423 12.5075 555.303 12.6877C556.182 12.8679 556.988 13.3044 557.62 13.9423C558.251 14.5802 558.68 15.3909 558.852 16.2723C559.025 17.1537 558.932 18.0664 558.587 18.8954C558.242 19.7243 557.659 20.4324 556.912 20.9306C556.165 21.4287 555.288 21.6945 554.391 21.6946C553.791 21.6919 553.197 21.571 552.644 21.3389C552.091 21.1067 551.589 20.7678 551.167 20.3415C550.745 19.9152 550.411 19.4099 550.184 18.8544C549.957 18.2988 549.841 17.704 549.844 17.1039Z" fill="#808285"/>
<path opacity="0.95" d="M389.674 151.945C389.685 151.048 389.96 150.176 390.465 149.436C390.971 148.696 391.684 148.122 392.514 147.787C393.344 147.451 394.255 147.369 395.132 147.551C396.009 147.732 396.813 148.169 397.443 148.806C398.072 149.444 398.499 150.253 398.67 151.133C398.84 152.013 398.747 152.923 398.402 153.75C398.057 154.577 397.475 155.283 396.73 155.78C395.985 156.277 395.109 156.542 394.214 156.542C393.613 156.54 393.019 156.42 392.466 156.187C391.912 155.955 391.41 155.615 390.988 155.188C390.566 154.761 390.233 154.254 390.007 153.698C389.782 153.141 389.668 152.545 389.674 151.945V151.945Z" fill="#808285"/>
<path opacity="0.9" d="M460.861 151.945C460.872 151.048 461.147 150.176 461.652 149.436C462.158 148.696 462.87 148.122 463.701 147.787C464.531 147.451 465.442 147.369 466.319 147.551C467.196 147.732 468 148.169 468.629 148.806C469.259 149.444 469.686 150.253 469.857 151.133C470.027 152.013 469.934 152.923 469.589 153.75C469.244 154.577 468.662 155.283 467.917 155.78C467.172 156.277 466.296 156.542 465.4 156.542C464.8 156.539 464.207 156.418 463.654 156.186C463.101 155.953 462.599 155.613 462.177 155.186C461.755 154.759 461.422 154.253 461.196 153.697C460.97 153.14 460.856 152.545 460.861 151.945V151.945Z" fill="#808285"/>
<path opacity="0.94" d="M532.054 193.452C532.065 192.556 532.34 191.683 532.845 190.944C533.351 190.204 534.064 189.63 534.894 189.295C535.725 188.959 536.636 188.877 537.513 189.059C538.39 189.24 539.193 189.677 539.823 190.314C540.452 190.952 540.879 191.761 541.05 192.641C541.221 193.52 541.128 194.431 540.783 195.258C540.437 196.085 539.856 196.791 539.11 197.288C538.365 197.785 537.489 198.05 536.594 198.05C535.994 198.048 535.399 197.927 534.846 197.695C534.292 197.463 533.79 197.123 533.368 196.696C532.946 196.269 532.613 195.762 532.387 195.206C532.162 194.649 532.048 194.053 532.054 193.452V193.452Z" fill="#808285"/>
<path opacity="0.57" d="M532.054 359.449C532.061 358.552 532.333 357.678 532.836 356.935C533.339 356.192 534.05 355.616 534.88 355.277C535.71 354.938 536.622 354.853 537.5 355.032C538.379 355.211 539.184 355.647 539.816 356.284C540.447 356.92 540.877 357.73 541.049 358.61C541.221 359.49 541.129 360.402 540.785 361.23C540.44 362.058 539.858 362.766 539.113 363.263C538.367 363.761 537.49 364.026 536.594 364.026C535.995 364.025 535.403 363.905 534.851 363.674C534.299 363.443 533.797 363.105 533.376 362.68C532.954 362.255 532.62 361.751 532.394 361.196C532.167 360.642 532.051 360.048 532.054 359.449V359.449Z" fill="#808285"/>
<path opacity="0.72" d="M514.243 349.057C514.252 348.158 514.526 347.281 515.031 346.537C515.536 345.793 516.25 345.215 517.083 344.877C517.916 344.538 518.83 344.454 519.71 344.634C520.591 344.815 521.398 345.252 522.031 345.891C522.664 346.53 523.094 347.342 523.266 348.224C523.438 349.107 523.346 350.021 523 350.851C522.654 351.681 522.071 352.391 521.323 352.89C520.575 353.388 519.696 353.655 518.797 353.655C518.196 353.653 517.601 353.532 517.047 353.3C516.493 353.068 515.99 352.729 515.567 352.302C515.144 351.874 514.809 351.368 514.582 350.811C514.355 350.255 514.24 349.658 514.243 349.057Z" fill="#808285"/>
<path opacity="0.79" d="M247.294 442.431C247.302 441.533 247.576 440.657 248.08 439.914C248.585 439.171 249.298 438.594 250.13 438.256C250.962 437.919 251.875 437.835 252.755 438.015C253.634 438.196 254.44 438.633 255.072 439.272C255.703 439.91 256.132 440.722 256.303 441.604C256.474 442.485 256.381 443.398 256.035 444.227C255.688 445.056 255.105 445.764 254.357 446.261C253.609 446.758 252.731 447.023 251.834 447.022C251.234 447.019 250.641 446.898 250.088 446.666C249.536 446.434 249.034 446.094 248.613 445.668C248.191 445.242 247.857 444.736 247.631 444.181C247.405 443.625 247.29 443.031 247.294 442.431V442.431Z" fill="#808285"/>
<path opacity="0.89" d="M318.48 400.916C318.491 400.02 318.767 399.147 319.272 398.407C319.777 397.668 320.49 397.094 321.32 396.758C322.151 396.423 323.062 396.341 323.939 396.522C324.816 396.704 325.619 397.141 326.249 397.778C326.878 398.415 327.305 399.225 327.476 400.105C327.647 400.984 327.554 401.895 327.209 402.722C326.864 403.549 326.282 404.255 325.536 404.752C324.791 405.249 323.916 405.514 323.02 405.514C322.42 405.51 321.827 405.388 321.274 405.155C320.722 404.922 320.22 404.583 319.799 404.156C319.377 403.729 319.044 403.223 318.818 402.667C318.591 402.111 318.477 401.516 318.48 400.916V400.916Z" fill="#808285"/>
<path opacity="0.54" d="M425.26 131.201C425.27 130.303 425.545 129.428 426.05 128.686C426.556 127.944 427.27 127.368 428.102 127.031C428.934 126.695 429.847 126.612 430.726 126.793C431.605 126.975 432.41 127.412 433.041 128.051C433.672 128.69 434.099 129.501 434.27 130.383C434.441 131.265 434.347 132.177 434.001 133.005C433.654 133.834 433.07 134.541 432.323 135.038C431.575 135.535 430.698 135.8 429.8 135.798C429.2 135.796 428.607 135.674 428.054 135.442C427.5 135.209 426.999 134.87 426.577 134.442C426.155 134.015 425.822 133.509 425.596 132.953C425.37 132.397 425.256 131.801 425.26 131.201V131.201Z" fill="#808285"/>
<path opacity="0.83" d="M318.48 234.947C318.49 234.05 318.764 233.177 319.269 232.436C319.773 231.695 320.485 231.12 321.316 230.784C322.146 230.447 323.057 230.364 323.935 230.545C324.812 230.725 325.617 231.162 326.247 231.799C326.877 232.436 327.304 233.246 327.476 234.126C327.647 235.006 327.554 235.916 327.209 236.744C326.865 237.571 326.283 238.278 325.537 238.775C324.792 239.272 323.916 239.537 323.02 239.537C322.421 239.535 321.828 239.414 321.275 239.181C320.722 238.949 320.221 238.61 319.799 238.184C319.377 237.757 319.044 237.252 318.818 236.697C318.591 236.141 318.477 235.546 318.48 234.947V234.947Z" fill="#808285"/>
<path opacity="0.55" d="M389.674 27.4621C389.683 26.5657 389.958 25.6922 390.462 24.9514C390.967 24.2107 391.679 23.6358 392.509 23.2993C393.34 22.9628 394.251 22.8796 395.128 23.0602C396.006 23.2409 396.81 23.6774 397.44 24.3146C398.07 24.9518 398.498 25.7613 398.67 26.6412C398.841 27.5211 398.748 28.4321 398.403 29.2594C398.058 30.0867 397.476 30.7933 396.731 31.2904C395.985 31.7875 395.11 32.0528 394.214 32.0529C393.614 32.0502 393.021 31.9292 392.468 31.697C391.916 31.4647 391.414 31.1258 390.993 30.6994C390.571 30.273 390.237 29.7676 390.011 29.2121C389.785 28.6566 389.67 28.0619 389.674 27.4621Z" fill="#808285"/>
<path opacity="0.74" d="M532.054 110.457C532.065 109.561 532.34 108.688 532.845 107.949C533.351 107.209 534.064 106.635 534.894 106.3C535.725 105.964 536.636 105.882 537.513 106.063C538.39 106.245 539.193 106.682 539.823 107.319C540.452 107.956 540.879 108.766 541.05 109.646C541.221 110.525 541.128 111.436 540.783 112.263C540.437 113.09 539.856 113.796 539.11 114.293C538.365 114.789 537.489 115.055 536.594 115.055C535.994 115.053 535.399 114.932 534.846 114.7C534.292 114.468 533.79 114.128 533.368 113.701C532.946 113.273 532.613 112.767 532.387 112.21C532.162 111.654 532.048 111.058 532.054 110.457V110.457Z" fill="#808285"/>
<path opacity="0.57" d="M318.481 68.9699C318.486 68.071 318.758 67.1937 319.261 66.449C319.764 65.7043 320.476 65.1254 321.308 64.7855C322.14 64.4455 323.053 64.3598 323.934 64.5389C324.814 64.7181 325.621 65.1542 326.254 65.7922C326.887 66.4303 327.317 67.2417 327.489 68.1239C327.662 69.0061 327.569 69.9197 327.223 70.7493C326.877 71.5789 326.293 72.2874 325.545 72.7853C324.797 73.2832 323.919 73.5482 323.02 73.5469C321.813 73.5396 320.657 73.054 319.806 72.1963C318.955 71.3385 318.479 70.1785 318.481 68.9699Z" fill="#808285"/>
<path opacity="0.7" d="M460.861 151.945C460.872 151.048 461.147 150.176 461.652 149.436C462.158 148.696 462.87 148.122 463.701 147.787C464.531 147.451 465.442 147.369 466.319 147.551C467.196 147.732 468 148.169 468.629 148.806C469.259 149.444 469.686 150.253 469.857 151.133C470.027 152.013 469.934 152.923 469.589 153.75C469.244 154.577 468.662 155.283 467.917 155.78C467.172 156.277 466.296 156.542 465.4 156.542C464.8 156.539 464.207 156.418 463.654 156.186C463.101 155.953 462.599 155.613 462.177 155.186C461.755 154.759 461.422 154.253 461.196 153.697C460.97 153.14 460.856 152.545 460.861 151.945V151.945Z" fill="#808285"/>
<path opacity="0.95" d="M211.7 6.71841C211.71 5.82234 211.984 4.94914 212.488 4.20857C212.992 3.468 213.704 2.8932 214.534 2.5565C215.364 2.2198 216.275 2.13622 217.152 2.31631C218.03 2.49641 218.834 2.93211 219.465 3.5686C220.095 4.2051 220.523 5.01396 220.695 5.89338C220.867 6.7728 220.776 7.68354 220.432 8.51095C220.088 9.33836 219.507 10.0454 218.762 10.5433C218.018 11.0412 217.143 11.3077 216.247 11.3091C215.647 11.3064 215.054 11.1855 214.501 10.9533C213.948 10.7212 213.446 10.3823 213.024 9.95599C212.601 9.52971 212.267 9.02445 212.04 8.46894C211.813 7.91344 211.698 7.31857 211.7 6.71841Z" fill="#808285"/>
<path opacity="0.99" d="M247.294 68.9699C247.299 68.071 247.571 67.1937 248.074 66.449C248.577 65.7043 249.289 65.1254 250.121 64.7855C250.952 64.4455 251.866 64.3598 252.746 64.5389C253.627 64.7181 254.434 65.1542 255.067 65.7922C255.7 66.4303 256.13 67.2417 256.302 68.1239C256.475 69.0061 256.382 69.9197 256.036 70.7493C255.69 71.5789 255.106 72.2874 254.358 72.7853C253.61 73.2832 252.732 73.5482 251.834 73.5469C250.625 73.5414 249.469 73.0563 248.617 72.1982C247.766 71.34 247.29 70.179 247.294 68.9699V68.9699Z" fill="#808285"/>
<path opacity="0.66" d="M176.1 483.939C176.104 483.038 176.375 482.16 176.877 481.413C177.38 480.666 178.093 480.086 178.925 479.744C179.758 479.402 180.672 479.315 181.554 479.493C182.436 479.671 183.246 480.107 183.88 480.745C184.515 481.383 184.947 482.195 185.121 483.078C185.295 483.961 185.203 484.876 184.858 485.708C184.513 486.539 183.929 487.249 183.181 487.749C182.433 488.249 181.553 488.516 180.653 488.516C179.443 488.512 178.284 488.028 177.43 487.17C176.577 486.312 176.098 485.15 176.1 483.939V483.939Z" fill="#808285"/>
<path opacity="0.65" d="M104.927 276.454C104.934 275.557 105.206 274.682 105.709 273.94C106.212 273.197 106.923 272.62 107.753 272.282C108.583 271.943 109.495 271.858 110.374 272.037C111.252 272.216 112.058 272.652 112.689 273.288C113.321 273.925 113.75 274.734 113.922 275.615C114.094 276.495 114.003 277.407 113.658 278.235C113.314 279.063 112.732 279.77 111.986 280.268C111.24 280.766 110.364 281.031 109.467 281.031C108.869 281.03 108.276 280.91 107.724 280.679C107.172 280.448 106.67 280.11 106.249 279.685C105.827 279.26 105.493 278.755 105.266 278.201C105.04 277.647 104.924 277.053 104.927 276.454V276.454Z" fill="#808285"/>
<path opacity="0.8" d="M33.7339 317.942C33.7433 317.045 34.0175 316.172 34.5221 315.431C35.0266 314.69 35.7388 314.115 36.5691 313.779C37.3994 313.442 38.3108 313.359 39.1882 313.54C40.0657 313.721 40.8701 314.157 41.5002 314.794C42.1303 315.431 42.5579 316.241 42.7292 317.121C42.9005 318.001 42.8079 318.912 42.4629 319.739C42.118 320.566 41.5361 321.273 40.7906 321.77C40.0451 322.267 39.1693 322.532 38.2735 322.532C37.6738 322.531 37.0803 322.41 36.5272 322.178C35.9741 321.947 35.4723 321.607 35.0505 321.181C34.6287 320.754 34.2952 320.249 34.0692 319.693C33.8433 319.137 33.7294 318.542 33.7339 317.942V317.942Z" fill="#808285"/>
<path opacity="0.87" d="M407.484 349.057C407.495 348.161 407.77 347.288 408.276 346.548C408.781 345.809 409.494 345.235 410.324 344.899C411.155 344.564 412.066 344.482 412.943 344.663C413.82 344.845 414.624 345.282 415.253 345.919C415.883 346.556 416.309 347.366 416.48 348.246C416.651 349.125 416.558 350.036 416.213 350.863C415.868 351.69 415.286 352.396 414.54 352.893C413.795 353.39 412.92 353.655 412.024 353.655C411.424 353.651 410.831 353.529 410.278 353.296C409.726 353.063 409.224 352.724 408.803 352.297C408.381 351.87 408.048 351.364 407.821 350.808C407.595 350.252 407.481 349.657 407.484 349.057V349.057Z" fill="#808285"/>
<path opacity="0.88" d="M389.674 380.193C389.681 379.296 389.953 378.421 390.456 377.679C390.958 376.936 391.67 376.359 392.5 376.021C393.33 375.682 394.242 375.597 395.12 375.776C395.998 375.955 396.804 376.391 397.436 377.027C398.067 377.664 398.496 378.473 398.669 379.354C398.841 380.234 398.749 381.146 398.404 381.974C398.06 382.802 397.478 383.509 396.732 384.007C395.986 384.505 395.11 384.77 394.214 384.77C393.005 384.765 391.849 384.28 390.998 383.422C390.146 382.563 389.67 381.402 389.674 380.193V380.193Z" fill="#808285"/>
<path opacity="0.74" d="M407.484 183.081C407.491 182.184 407.763 181.309 408.266 180.566C408.769 179.824 409.48 179.247 410.311 178.908C411.141 178.57 412.052 178.484 412.931 178.664C413.809 178.843 414.615 179.278 415.246 179.915C415.878 180.551 416.307 181.361 416.479 182.241C416.651 183.121 416.559 184.033 416.215 184.861C415.87 185.689 415.289 186.396 414.543 186.894C413.797 187.392 412.921 187.657 412.024 187.657C410.816 187.65 409.661 187.165 408.81 186.307C407.959 185.449 407.483 184.289 407.484 183.081Z" fill="#808285"/>
<path d="M389.674 172.709C389.681 171.812 389.953 170.937 390.456 170.194C390.958 169.452 391.67 168.875 392.5 168.536C393.33 168.198 394.242 168.113 395.12 168.292C395.998 168.471 396.804 168.906 397.436 169.543C398.067 170.18 398.496 170.989 398.669 171.869C398.841 172.75 398.749 173.661 398.404 174.489C398.06 175.317 397.478 176.025 396.732 176.523C395.986 177.02 395.11 177.286 394.214 177.286C393.005 177.28 391.849 176.795 390.998 175.937C390.146 175.079 389.67 173.918 389.674 172.709V172.709Z" fill="#808285"/>
<path d="M371.877 203.824C371.888 202.928 372.163 202.055 372.669 201.315C373.174 200.576 373.887 200.002 374.717 199.666C375.548 199.331 376.459 199.249 377.336 199.43C378.213 199.612 379.017 200.049 379.646 200.686C380.276 201.323 380.703 202.133 380.873 203.013C381.044 203.892 380.951 204.803 380.606 205.63C380.261 206.457 379.679 207.163 378.934 207.66C378.188 208.157 377.313 208.422 376.417 208.422C375.817 208.418 375.224 208.296 374.671 208.063C374.119 207.83 373.617 207.491 373.196 207.064C372.774 206.637 372.441 206.131 372.214 205.575C371.988 205.019 371.874 204.424 371.877 203.824V203.824Z" fill="#808285"/>
<path opacity="0.6" d="M407.484 203.824C407.495 202.928 407.77 202.055 408.276 201.315C408.781 200.576 409.494 200.002 410.324 199.666C411.155 199.331 412.066 199.249 412.943 199.43C413.82 199.612 414.624 200.049 415.253 200.686C415.883 201.323 416.309 202.133 416.48 203.013C416.651 203.892 416.558 204.803 416.213 205.63C415.868 206.457 415.286 207.163 414.54 207.66C413.795 208.157 412.92 208.422 412.024 208.422C411.424 208.418 410.831 208.296 410.278 208.063C409.726 207.83 409.224 207.491 408.803 207.064C408.381 206.637 408.048 206.131 407.821 205.575C407.595 205.019 407.481 204.424 407.484 203.824V203.824Z" fill="#808285"/>
<path opacity="0.5" d="M104.927 6.71842C104.937 5.82206 105.211 4.94855 105.715 4.20783C106.22 3.46711 106.932 2.89235 107.763 2.55585C108.593 2.21935 109.504 2.13618 110.382 2.31683C111.259 2.49749 112.063 2.93387 112.694 3.57104C113.324 4.20822 113.751 5.0177 113.923 5.89756C114.094 6.77743 114.001 7.68835 113.656 8.51563C113.311 9.34292 112.73 10.0496 111.984 10.5467C111.239 11.0438 110.363 11.309 109.467 11.3091C108.867 11.3073 108.274 11.187 107.721 10.9551C107.168 10.7231 106.666 10.3841 106.244 9.95758C105.822 9.53103 105.489 9.02532 105.263 8.46945C105.037 7.91358 104.923 7.3185 104.927 6.71842V6.71842Z" fill="#808285"/>
<path opacity="0.87" d="M104.927 48.2058C104.937 47.3094 105.211 46.4359 105.715 45.6952C106.22 44.9544 106.932 44.3797 107.763 44.0432C108.593 43.7067 109.504 43.6235 110.382 43.8041C111.259 43.9848 112.064 44.4212 112.694 45.0584C113.324 45.6955 113.751 46.505 113.923 47.3849C114.094 48.2648 114.001 49.1757 113.656 50.003C113.311 50.8303 112.73 51.537 111.984 52.0341C111.239 52.5312 110.363 52.7965 109.467 52.7965C108.867 52.7956 108.273 52.6759 107.72 52.4443C107.166 52.2127 106.664 51.8737 106.242 51.447C105.82 51.0203 105.486 50.5142 105.261 49.9579C105.035 49.4016 104.922 48.8061 104.927 48.2058V48.2058Z" fill="#808285"/>
<path opacity="0.67" d="M229.497 349.057C229.508 348.161 229.783 347.288 230.289 346.548C230.794 345.809 231.507 345.235 232.337 344.899C233.168 344.564 234.079 344.482 234.956 344.663C235.833 344.845 236.636 345.282 237.266 345.919C237.895 346.556 238.322 347.366 238.493 348.246C238.664 349.125 238.571 350.036 238.226 350.863C237.88 351.69 237.299 352.396 236.553 352.893C235.808 353.39 234.932 353.655 234.037 353.655C233.437 353.651 232.844 353.529 232.291 353.296C231.738 353.063 231.237 352.724 230.815 352.297C230.394 351.87 230.06 351.364 229.834 350.808C229.608 350.252 229.493 349.657 229.497 349.057Z" fill="#808285"/>
<path opacity="0.94" d="M265.084 369.821C265.089 368.923 265.36 368.047 265.862 367.303C266.364 366.558 267.076 365.979 267.906 365.639C268.736 365.298 269.649 365.211 270.529 365.389C271.409 365.566 272.216 366.001 272.85 366.636C273.483 367.272 273.915 368.082 274.09 368.963C274.264 369.844 274.175 370.757 273.832 371.587C273.489 372.417 272.908 373.126 272.163 373.627C271.418 374.127 270.541 374.396 269.644 374.398C269.044 374.397 268.45 374.278 267.897 374.048C267.343 373.817 266.84 373.48 266.416 373.055C265.993 372.63 265.657 372.126 265.429 371.571C265.2 371.016 265.083 370.421 265.084 369.821V369.821Z" fill="#808285"/>
<path opacity="0.83" d="M176.101 400.916C176.109 400.017 176.382 399.14 176.888 398.396C177.393 397.652 178.107 397.075 178.94 396.736C179.772 396.397 180.686 396.313 181.567 396.493C182.447 396.674 183.255 397.111 183.888 397.75C184.52 398.389 184.95 399.201 185.122 400.083C185.295 400.966 185.202 401.88 184.856 402.71C184.511 403.54 183.927 404.25 183.179 404.749C182.431 405.247 181.552 405.514 180.654 405.514C180.053 405.511 179.459 405.39 178.905 405.157C178.351 404.925 177.848 404.586 177.426 404.159C177.003 403.732 176.668 403.226 176.441 402.669C176.213 402.113 176.098 401.517 176.101 400.916V400.916Z" fill="#808285"/>
<path opacity="0.88" d="M247.294 442.431C247.302 441.533 247.576 440.657 248.08 439.914C248.585 439.171 249.298 438.594 250.13 438.256C250.962 437.919 251.875 437.835 252.755 438.015C253.634 438.196 254.44 438.633 255.072 439.272C255.703 439.91 256.132 440.722 256.303 441.604C256.474 442.485 256.381 443.398 256.035 444.227C255.688 445.056 255.105 445.764 254.357 446.261C253.609 446.758 252.731 447.023 251.834 447.022C251.234 447.019 250.641 446.898 250.088 446.666C249.536 446.434 249.034 446.094 248.613 445.668C248.191 445.242 247.857 444.736 247.631 444.181C247.405 443.625 247.29 443.031 247.294 442.431V442.431Z" fill="#808285"/>
<path opacity="0.72" d="M318.48 400.916C318.491 400.02 318.767 399.147 319.272 398.407C319.777 397.668 320.49 397.094 321.32 396.758C322.151 396.423 323.062 396.341 323.939 396.522C324.816 396.704 325.619 397.141 326.249 397.778C326.878 398.415 327.305 399.225 327.476 400.105C327.647 400.984 327.554 401.895 327.209 402.722C326.864 403.549 326.282 404.255 325.536 404.752C324.791 405.249 323.916 405.514 323.02 405.514C322.42 405.51 321.827 405.388 321.274 405.155C320.722 404.922 320.22 404.583 319.799 404.156C319.377 403.729 319.044 403.223 318.818 402.667C318.591 402.111 318.477 401.516 318.48 400.916V400.916Z" fill="#808285"/>
<path opacity="0.85" d="M33.7339 151.945C33.7447 151.048 34.0201 150.176 34.5254 149.436C35.0308 148.696 35.7434 148.122 36.5739 147.787C37.4043 147.451 38.3153 147.369 39.1923 147.551C40.0693 147.732 40.873 148.169 41.5025 148.806C42.1319 149.444 42.5589 150.253 42.7297 151.133C42.9005 152.013 42.8074 152.923 42.4623 153.75C42.1171 154.577 41.5354 155.283 40.7901 155.78C40.0447 156.277 39.1691 156.542 38.2736 156.542C37.6736 156.539 37.0799 156.418 36.5268 156.186C35.9736 155.953 35.4718 155.613 35.0501 155.186C34.6283 154.759 34.2951 154.253 34.0692 153.697C33.8434 153.14 33.7294 152.545 33.7339 151.945V151.945Z" fill="#808285"/>
<path opacity="0.72" d="M33.7338 234.947C33.7433 234.05 34.0175 233.177 34.522 232.436C35.0266 231.695 35.7388 231.12 36.5691 230.784C37.3994 230.447 38.3108 230.364 39.1882 230.545C40.0656 230.725 40.8701 231.162 41.5002 231.799C42.1303 232.436 42.5579 233.246 42.7292 234.126C42.9005 235.006 42.8079 235.916 42.4629 236.744C42.118 237.571 41.5361 238.278 40.7906 238.775C40.0451 239.272 39.1693 239.537 38.2735 239.537C37.6741 239.535 37.0811 239.414 36.5284 239.181C35.9757 238.949 35.4741 238.61 35.0525 238.184C34.6308 237.757 34.2973 237.252 34.071 236.697C33.8447 236.141 33.7302 235.546 33.7338 234.947Z" fill="#808285"/>
<path opacity="0.75" d="M-2.96413e-07 217.89C0.775251 218.473 1.71752 218.79 2.68695 218.793C3.4166 218.802 4.13795 218.637 4.79117 218.312C5.4444 217.987 6.01074 217.51 6.44337 216.922C6.87601 216.334 7.16243 215.651 7.27899 214.931C7.39554 214.21 7.33898 213.472 7.11373 212.777C6.88849 212.083 6.50117 211.452 5.98384 210.937C5.4665 210.422 4.83392 210.038 4.13868 209.816C3.44343 209.594 2.70542 209.541 1.98571 209.662C1.266 209.782 0.585337 210.072 -2.96413e-07 210.508V217.89Z" fill="#808285"/>
<path opacity="0.93" d="M318.481 68.97C318.487 68.073 318.759 67.198 319.262 66.4555C319.765 65.713 320.476 65.136 321.306 64.7974C322.137 64.4588 323.048 64.3737 323.927 64.5529C324.805 64.732 325.611 65.1673 326.242 65.804C326.874 66.4407 327.303 67.2501 327.475 68.1304C327.648 69.0106 327.556 69.9223 327.211 70.7504C326.867 71.5785 326.285 72.2859 325.539 72.7836C324.793 73.2812 323.917 73.5468 323.02 73.5469C321.813 73.5396 320.657 73.054 319.806 72.1963C318.955 71.3385 318.479 70.1785 318.481 68.97Z" fill="#808285"/>
<path opacity="0.95" d="M33.7338 68.97C33.7405 68.073 34.0124 67.198 34.5153 66.4555C35.0182 65.713 35.7296 65.136 36.5597 64.7974C37.3898 64.4588 38.3014 64.3737 39.1798 64.5529C40.0581 64.732 40.8639 65.1673 41.4954 65.804C42.1269 66.4407 42.5558 67.2501 42.7282 68.1304C42.9006 69.0106 42.8087 69.9223 42.4642 70.7504C42.1196 71.5785 41.5378 72.2859 40.792 72.7836C40.0462 73.2812 39.1698 73.5468 38.2734 73.5469C37.0657 73.5396 35.91 73.054 35.0593 72.1963C34.2085 71.3385 33.7319 70.1785 33.7338 68.97Z" fill="#808285"/>
<path opacity="0.55" d="M104.927 359.449C104.934 358.552 105.206 357.678 105.709 356.935C106.212 356.192 106.923 355.616 107.753 355.277C108.583 354.938 109.495 354.853 110.374 355.032C111.252 355.211 112.058 355.647 112.689 356.284C113.321 356.92 113.75 357.73 113.922 358.61C114.094 359.49 114.003 360.402 113.658 361.23C113.314 362.058 112.732 362.766 111.986 363.263C111.24 363.761 110.364 364.026 109.467 364.026C108.869 364.025 108.276 363.905 107.724 363.674C107.172 363.443 106.67 363.105 106.249 362.68C105.827 362.255 105.493 361.751 105.266 361.196C105.04 360.642 104.924 360.048 104.927 359.449V359.449Z" fill="#808285"/>
<path opacity="0.59" d="M104.927 193.452C104.938 192.556 105.213 191.683 105.719 190.944C106.224 190.204 106.937 189.63 107.767 189.295C108.598 188.959 109.509 188.877 110.386 189.059C111.263 189.24 112.067 189.677 112.696 190.314C113.325 190.952 113.752 191.761 113.923 192.641C114.094 193.52 114.001 194.431 113.656 195.258C113.311 196.085 112.729 196.791 111.983 197.288C111.238 197.785 110.363 198.05 109.467 198.05C108.867 198.048 108.273 197.927 107.719 197.695C107.166 197.463 106.663 197.123 106.242 196.696C105.82 196.269 105.486 195.762 105.261 195.206C105.035 194.649 104.922 194.053 104.927 193.452V193.452Z" fill="#808285"/>
</g>
</svg>
