<svg width="153" height="36" viewBox="0 0 153 36" fill="none" xmlns="http://www.w3.org/2000/svg">
<path d="M11.5498 12.2426V23.7365H1.4918C0.667716 23.7365 0 23.072 0 22.2519V13.7271C0 12.907 0.667716 12.2426 1.4918 12.2426H11.5498Z" fill="#3CBA8D"/>
<path d="M23.8643 1.48458V10.0136C23.8643 10.8336 23.1965 11.4981 22.3725 11.4981H12.3145V8.31028C12.3145 3.72196 16.0503 0 20.6609 0H22.3725C23.1965 0 23.8643 0.664486 23.8643 1.48458Z" fill="#3CBA8D"/>
<path d="M11.5498 9.5972C11.554 9.70234 11.5498 10.0178 11.5498 10.0178C11.5498 10.8379 11.5498 11.5023 11.5498 11.5023H1.4918C0.667716 11.4981 0 10.8336 0 10.0136V1.48458C0 0.664486 0.667716 0 1.4918 0H17.331C17.3353 0 11.2244 1.38364 11.5498 9.5972Z" fill="#586BB3"/>
<path d="M11.5498 24.5018V34.5112C11.5498 35.3313 10.8821 35.9957 10.058 35.9957H1.4918C0.667716 36 0 35.3355 0 34.5154V25.9864C0 25.1663 0.667716 24.5018 1.4918 24.5018H11.5498Z" fill="#586BB3"/>
<path d="M23.8643 13.7271V22.2519C23.8643 23.072 23.1965 23.7365 22.3725 23.7365H12.3145V12.2426H22.3725C23.1965 12.2426 23.8643 12.907 23.8643 13.7271Z" fill="#586BB3"/>
<path d="M151.043 15.4725C149.154 16.5743 146.728 15.9435 145.621 14.0678C144.514 12.1879 145.148 9.77388 147.033 8.67201C148.922 7.57014 151.347 8.20098 152.455 10.0767C153.562 11.9524 152.928 14.3706 151.043 15.4725Z" fill="#3CBA8D"/>
<path d="M59.4982 34.6164V15.6365L57.4782 15.3211C57.0387 15.2327 56.6879 15.0771 56.4217 14.8584C56.1554 14.6397 56.0244 14.3285 56.0244 13.9206V11.6369H59.4982V9.92526C59.4982 8.60049 59.6969 7.4103 60.0983 6.3547C60.4998 5.29909 61.0745 4.40329 61.8226 3.66731C62.5706 2.93133 63.4834 2.36357 64.5568 1.97245C65.6302 1.58133 66.8431 1.38367 68.187 1.38367C69.2604 1.38367 70.262 1.52666 71.1833 1.81264L71.0692 4.61357C71.0522 4.82385 70.9931 4.99208 70.8874 5.12245C70.7818 5.24862 70.6423 5.34956 70.4691 5.41684C70.2958 5.48413 70.0929 5.5304 69.869 5.55142C69.645 5.57245 69.3999 5.58507 69.1421 5.58507C68.4744 5.58507 67.8827 5.65656 67.3587 5.79956C66.8347 5.94255 66.3951 6.19068 66.0317 6.54395C65.6683 6.89722 65.3936 7.36404 65.2034 7.94442C65.0132 8.52479 64.9202 9.24395 64.9202 10.1019V11.6369H70.9804V15.6112H65.102V34.608H59.4982V34.6164Z" fill="#3CBA8D"/>
<path d="M73.1232 14.3076C75.8025 11.8683 79.027 10.6487 82.7924 10.6487C84.1532 10.6487 85.3745 10.8716 86.4479 11.3132C87.5213 11.759 88.4299 12.373 89.1737 13.1636C89.9133 13.9543 90.4796 14.9006 90.8641 15.9982C91.2487 17.0959 91.4431 18.3029 91.4431 19.6108V34.2506H88.899C88.3708 34.2506 87.9608 34.1706 87.6735 34.015C87.3861 33.8594 87.1579 33.5356 86.9931 33.0562L86.4944 31.3823C85.9028 31.908 85.328 32.3749 84.7702 32.7702C84.2081 33.1697 83.6291 33.5062 83.0206 33.7753C82.412 34.0445 81.7697 34.2548 81.0808 34.3977C80.392 34.5407 79.6313 34.6122 78.7988 34.6122C77.8141 34.6122 76.9055 34.4819 76.073 34.2169C75.2404 33.952 74.522 33.5566 73.9177 33.0309C73.3133 32.5052 72.8443 31.8492 72.5104 31.0669C72.1765 30.2847 72.0117 29.372 72.0117 28.3333C72.0117 27.7445 72.1089 27.1641 72.3075 26.5837C72.5019 26.0034 72.8274 25.4524 73.2711 24.9225C73.719 24.3968 74.298 23.9006 75.008 23.4337C75.718 22.9669 76.5928 22.559 77.6281 22.2141C78.6635 21.8692 79.8722 21.5833 81.2499 21.3688C82.6276 21.1501 84.1996 21.0197 85.9704 20.9734V19.6192C85.9704 18.0674 85.6365 16.9192 84.973 16.1748C84.3053 15.4305 83.346 15.0562 82.0909 15.0562C81.1823 15.0562 80.43 15.1613 79.8341 15.3716C79.234 15.5819 78.71 15.8216 78.2578 16.0823C77.8056 16.3473 77.3915 16.5828 77.0196 16.7931C76.6477 17.0034 76.2378 17.1085 75.7814 17.1085C75.3883 17.1085 75.0545 17.0076 74.784 16.8015C74.5135 16.5954 74.2938 16.3599 74.1247 16.0907L73.1232 14.3076ZM85.9746 24.359C84.356 24.4347 82.9952 24.5734 81.888 24.7753C80.7808 24.9772 79.8975 25.2379 79.234 25.5534C78.5663 25.8688 78.093 26.2389 77.8056 26.6594C77.5183 27.08 77.3746 27.5426 77.3746 28.0389C77.3746 29.0188 77.6662 29.7169 78.2494 30.1417C78.8326 30.5622 79.5933 30.7725 80.5314 30.7725C81.6809 30.7725 82.6783 30.5664 83.515 30.1501C84.356 29.7379 85.1759 29.1071 85.9788 28.2618V24.359H85.9746Z" fill="#3CBA8D"/>
<path d="M100.17 15.4598C100.897 14.0761 101.759 12.9869 102.757 12.1962C103.754 11.4056 104.937 11.0103 106.298 11.0103C107.371 11.0103 108.234 11.2458 108.884 11.7126L108.521 15.893C108.445 16.1621 108.335 16.3556 108.191 16.4691C108.048 16.5827 107.853 16.6374 107.612 16.6374C107.384 16.6374 107.05 16.5995 106.602 16.5238C106.154 16.4481 105.719 16.4103 105.296 16.4103C104.675 16.4103 104.122 16.4986 103.64 16.6794C103.154 16.8603 102.723 17.121 102.334 17.4574C101.949 17.7981 101.607 18.206 101.311 18.6897C101.015 19.1733 100.741 19.7201 100.483 20.3383V34.6163H94.875V11.435H98.1671C98.7418 11.435 99.1433 11.536 99.3715 11.742C99.5997 11.9439 99.7519 12.3098 99.8279 12.8397L100.17 15.4598Z" fill="#3CBA8D"/>
<path d="M111.623 34.6164V11.435H115.05C115.777 11.435 116.255 11.7757 116.479 12.4528L116.842 14.1687C117.252 13.7187 117.679 13.3023 118.123 12.928C118.566 12.5537 119.044 12.2257 119.551 11.9565C120.058 11.6874 120.603 11.4729 121.187 11.3131C121.77 11.1533 122.408 11.0776 123.105 11.0776C124.572 11.0776 125.78 11.4729 126.727 12.2636C127.674 13.0542 128.379 14.1056 128.848 15.4136C129.212 14.6439 129.664 13.9879 130.209 13.4369C130.754 12.886 131.35 12.4402 132.001 12.0911C132.652 11.7463 133.345 11.4897 134.08 11.3215C134.816 11.1575 135.551 11.0734 136.295 11.0734C137.579 11.0734 138.725 11.271 139.722 11.6621C140.719 12.0533 141.56 12.6252 142.241 13.378C142.921 14.1308 143.441 15.0477 143.796 16.1327C144.151 17.2178 144.328 18.4584 144.328 19.8589V34.6122H138.72V19.8631C138.72 18.3869 138.395 17.2766 137.744 16.5322C137.093 15.7879 136.138 15.4136 134.883 15.4136C134.308 15.4136 133.776 15.5103 133.282 15.7079C132.791 15.9056 132.36 16.1874 131.988 16.5533C131.616 16.9234 131.325 17.386 131.114 17.9411C130.902 18.5005 130.797 19.1397 130.797 19.8631V34.6164H125.176V19.8631C125.176 18.3112 124.863 17.1841 124.234 16.4734C123.604 15.7668 122.687 15.4136 121.474 15.4136C120.658 15.4136 119.898 15.6154 119.192 16.0107C118.486 16.4103 117.835 16.957 117.227 17.6467V34.6122H111.623V34.6164Z" fill="#3CBA8D"/>
<path d="M54.5031 2.37619C54.5031 2.68741 54.3975 2.94395 54.1904 3.15423C53.9791 3.36451 53.6495 3.46965 53.1973 3.46965H41.2502L39.2682 14.4295C40.3121 14.1645 41.2967 13.9753 42.2307 13.8617C43.1646 13.7439 44.0563 13.6893 44.9142 13.6893C46.6258 13.6893 48.1345 13.9332 49.4403 14.4211C50.7462 14.9089 51.8407 15.5902 52.7197 16.465C53.5988 17.3397 54.2623 18.3827 54.7144 19.5897C55.1666 20.7968 55.3906 22.1131 55.3906 23.5388C55.3906 25.2715 55.0863 26.8234 54.482 28.1944C53.8735 29.5654 53.0536 30.7304 52.0182 31.6893C50.9828 32.6482 49.7742 33.3841 48.388 33.8972C47.0019 34.4061 45.5355 34.6626 43.976 34.6626C43.059 34.6626 42.1884 34.5827 41.3643 34.4187C40.5403 34.2547 39.7627 34.0402 39.0316 33.7668C38.3005 33.4977 37.6327 33.1823 37.0242 32.8248C36.4156 32.4673 35.8789 32.1056 35.4141 31.7313L36.0691 30.8271C36.2255 30.5958 36.4494 30.4781 36.7453 30.4781C36.9481 30.4781 37.2397 30.5958 37.6201 30.8271C38.0004 31.0584 38.4906 31.315 39.0907 31.5925C39.6908 31.8701 40.3966 32.1267 41.2122 32.358C42.0278 32.5893 42.9829 32.707 44.069 32.707C45.3453 32.707 46.5328 32.501 47.64 32.093C48.743 31.6851 49.7066 31.0921 50.5222 30.3182C51.3378 29.5444 51.976 28.5897 52.4366 27.45C52.8972 26.3103 53.1254 25.0234 53.1254 23.5851C53.1254 22.4075 52.9522 21.3267 52.6014 20.3341C52.2507 19.3458 51.7224 18.4963 51.0124 17.7897C50.3024 17.0874 49.4107 16.5365 48.3289 16.1411C47.247 15.7458 45.975 15.5482 44.5128 15.5482C43.6253 15.5482 42.6829 15.6197 41.6897 15.7584C40.6924 15.8972 39.6359 16.1243 38.516 16.4313L37.0707 15.9897L39.6612 1.42993H54.4989V2.37619H54.5031Z" fill="#3CBA8D"/>
</svg>
