<svg width="11" height="13" viewBox="0 0 11 13" fill="none" xmlns="http://www.w3.org/2000/svg">
<path d="M9.625 5H8.875V3.92188C8.875 2.04688 7.375 0.523438 5.5 0.5C3.625 0.5 2.125 2.02344 2.125 3.875V5H1.375C0.742188 5 0.25 5.51562 0.25 6.125V11.375C0.25 12.0078 0.742188 12.5 1.375 12.5H9.625C10.2344 12.5 10.75 12.0078 10.75 11.375V6.125C10.75 5.51562 10.2344 5 9.625 5ZM3.25 3.875C3.25 2.65625 4.25781 1.625 5.5 1.625C6.71875 1.625 7.75 2.65625 7.75 3.875V5H3.25V3.875ZM9.625 11.375H1.375V6.125H9.625V11.375Z" fill="white"/>
</svg>
